<svg id="Layer_1" data-name="Layer 1" xmlns="http://www.w3.org/2000/svg" viewBox="0 0 64 64">
  <title>alpha</title>
  <path style="fill: currentColor;" d="M25.41,46.59a2,2,0,0,0-2.82,0L18,51.17V8a2,2,0,0,0-4,0V51.17L9.41,46.59a2,2,0,0,0-2.82,2.82L16,58.83l9.41-9.42A2,2,0,0,0,25.41,46.59Z"/>
  <path style="fill: currentColor;" d="M52,62H36a2,2,0,0,1-1.56-3.25L47.84,42H36a2,2,0,0,1,0-4H52a2,2,0,0,1,1.56,3.25L40.16,58H52a2,2,0,0,1,0,4Z"/>
  <path style="fill: currentColor;" d="M55.79,23.11l-10-20a2,2,0,0,0-3.58,0l-10,20a2,2,0,1,0,3.58,1.78l3.51-7A2,2,0,0,0,40,18h8a2,2,0,0,0,.7-.13l3.51,7a2,2,0,0,0,3.58-1.78ZM41.24,14,44,8.47,46.76,14Z"/>
</svg>
