<svg height='100px' width='100px' style="fill: currentColor;" xmlns:dc="http://purl.org/dc/elements/1.1/" xmlns:cc="http://creativecommons.org/ns#" xmlns:rdf="http://www.w3.org/1999/02/22-rdf-syntax-ns#" xmlns:svg="http://www.w3.org/2000/svg" xmlns="http://www.w3.org/2000/svg" xmlns:sodipodi="http://sodipodi.sourceforge.net/DTD/sodipodi-0.dtd" xmlns:inkscape="http://www.inkscape.org/namespaces/inkscape" viewBox="0 0 24.000001 24.000001" version="1.1" x="0px" y="0px"><g transform="translate(0,-1028.3622)"><path d="m 19.041016,1.3417969 c -0.384946,0 -0.769747,0.1448468 -1.060547,0.4355469 L 7.2734375,12.484375 7.2402344,12.625 6,18 11.515625,16.728516 22.222656,6.0195312 c 0.581364,-0.5815999 0.58154,-1.5395937 0,-2.1210937 L 20.101562,1.7773438 C 19.810806,1.4866437 19.425961,1.3417969 19.041016,1.3417969 Z m 0,0.9902343 c 0.126285,1.25e-5 0.252606,0.051444 0.353515,0.1523438 l 2.121094,2.1210938 c 0.202076,0.2020999 0.202015,0.5050312 0,0.7070312 L 19.744141,7.0839844 16.916016,4.2558594 18.6875,2.484375 c 0.100981,-0.10095 0.227231,-0.1523562 0.353516,-0.1523438 z M 4.53125,3 C 3.6920986,3 3,3.69205 3,4.53125 V 19.470703 C 3,20.309903 3.6920986,21 4.53125,21 h 14.9375 C 20.307902,21 21,20.309903 21,19.470703 V 10.03125 h -1 v 9.439453 C 20,19.773203 19.771164,20 19.46875,20 H 4.53125 C 4.2288362,20 4,19.773203 4,19.470703 V 4.53125 C 4,4.22875 4.2288362,4.0019531 4.53125,4.0019531 h 9.529297 V 3 Z m 11.677734,1.9628906 2.828125,2.828125 -7.773437,7.7753904 -2.8281251,-2.828125 z m -8.1972652,8.7656254 2.2597652,2.259765 -2.9374996,0.677735 z" transform="translate(0,1028.3622)"></path></g></svg>