<?xml version="1.0" encoding="UTF-8"?>
<svg width="100pt" height="100pt" version="1.1" viewBox="0 0 100 100" xmlns="http://www.w3.org/2000/svg">
 <path class="graphics-fill-wanted" d="m36.781 5.2812c-0.58203 0-1.5586 6.5898-1.9688 7s-6.9688 1.3867-6.9688 1.9688 6.5586 1.5586 6.9688 1.9688 1.3867 7 1.9688 7 1.5898-6.5898 2-7 6.9688-1.3867 6.9688-1.9688-6.5586-1.5586-6.9688-1.9688-1.418-7-2-7zm-18.781 16.125c-0.83984 0-2.2812 9.5312-2.875 10.125s-10.125 2.0352-10.125 2.875 9.5312 2.2812 10.125 2.875 2.0352 10.094 2.875 10.094 2.2812-9.5 2.875-10.094 10.094-2.0352 10.094-2.875-9.5-2.2812-10.094-2.875-2.0352-10.125-2.875-10.125zm38.5 0c-0.58203 0-1.5898 6.5586-2 6.9688s-6.9688 1.418-6.9688 2 6.5586 1.5586 6.9688 1.9688 1.418 7 2 7 1.5586-6.5898 1.9688-7 7-1.3867 7-1.9688-6.5898-1.5898-7-2-1.3867-6.9688-1.9688-6.9688zm27.75 4.4688c-0.69531 0-1.8828 7.8828-2.375 8.375s-8.375 1.6797-8.375 2.375 7.8828 1.8828 8.375 2.375 1.6797 8.375 2.375 8.375 1.8828-7.8828 2.375-8.375 8.375-1.6797 8.375-2.375-7.8828-1.8828-8.375-2.375-1.6797-8.375-2.375-8.375zm-45.688 15.5c-9.4648 0-18.219 7.6992-17.188 17.562 0.91016 8.6758 5.7578 14.719 10.906 19.406s10.66 8.4297 14.25 12.781l2.9688 3.5938 3-3.5938c3.9766-4.7539 9.8984-9.6016 15.062-14.719s9.9961-10.688 10.125-17.812c0.16797-9.5234-7.7656-17.219-17.219-17.219-4.2695 0-8.0469 1.7148-10.969 4.25-2.9219-2.5352-6.668-4.25-10.938-4.25z" fill-rule="evenodd"/>
</svg>
