<?xml version="1.0" encoding="utf-8"?>
<!-- Generator: Adobe Illustrator 24.0.3, SVG Export Plug-In . SVG Version: 6.00 Build 0)  -->
<svg version="1.1"
	 id="svg3451" xmlns:cc="http://creativecommons.org/ns#" xmlns:dc="http://purl.org/dc/elements/1.1/" xmlns:inkscape="http://www.inkscape.org/namespaces/inkscape" xmlns:rdf="http://www.w3.org/1999/02/22-rdf-syntax-ns#" xmlns:sodipodi="http://sodipodi.sourceforge.net/DTD/sodipodi-0.dtd" xmlns:svg="http://www.w3.org/2000/svg"
	 xmlns="http://www.w3.org/2000/svg" xmlns:xlink="http://www.w3.org/1999/xlink" x="0px" y="0px" viewBox="0 0 230 400"
	 style="enable-background:new 0 0 230 400;" xml:space="preserve">
<style type="text/css">
	.st0{fill:#4F4C4D;}
	.st1{fill:#F0D103;}
</style>
<sodipodi:namedview  bordercolor="#666666" borderopacity="1" gridtolerance="10" guidetolerance="10" id="namedview58" inkscape:current-layer="svg3451" inkscape:cx="730.10994" inkscape:cy="89.177042" inkscape:pageopacity="0" inkscape:pageshadow="2" inkscape:window-height="960" inkscape:window-maximized="1" inkscape:window-width="1280" inkscape:window-x="0" inkscape:window-y="27" inkscape:zoom="0.425941" objecttolerance="10" pagecolor="#ffffff" showgrid="false">
	</sodipodi:namedview>
<g id="layer1" transform="translate(0,-652.36216)">
	<g id="g3529" transform="translate(84.999997,0)">
		<g id="g132" transform="matrix(4.5858755,0,0,-4.5998425,143.74977,994.4971)">
			<path id="path134" class="st0" d="M-18.5,0h-12.5c-0.7,0-1.3,0.2-1.3,0.5c0,0.3,0.6,0.5,1.3,0.5l12.5,0c0.7,0,1.3-0.2,1.3-0.5
				C-17.2,0.2-17.8,0-18.5,0 M-18.5-4.3h-12.5c-0.7,0-1.3,0.2-1.3,0.5c0,0.3,0.6,0.5,1.3,0.5h12.5c0.7,0,1.3-0.2,1.3-0.5
				C-17.2-4.1-17.8-4.3-18.5-4.3 M-13.8-1.6c0,1-0.7,1.9-1.6,2.1c0.9,0.3,1.6,1.1,1.6,2.1c0,1.2-1,2.2-2.2,2.2h-17.7
				c-1.2,0-2.2-1-2.2-2.2c0-1,0.7-1.9,1.6-2.1c-0.9-0.2-1.6-1.1-1.6-2.1s0.7-1.9,1.6-2.1c-0.9-0.3-1.6-1.1-1.6-2.1
				c0-1.2,1-2.2,2.2-2.2H-16c1.2,0,2.2,1,2.2,2.2c0,1-0.7,1.9-1.6,2.1C-14.5-3.5-13.8-2.6-13.8-1.6"/>
		</g>
		<g id="g136" transform="matrix(4.5858755,0,0,-4.5998425,81.076907,1035.1726)">
			<path id="path138" class="st0" d="M-18.5,0c1.7-2.3,4.4-3.7,7.4-3.7c3,0,5.7,1.5,7.4,3.7H-18.5z"/>
		</g>
		<g id="g140" transform="matrix(4.5858755,0,0,-4.5998425,114.45887,665.56374)">
			<path id="path142" class="st1" d="M-18.5,0c-0.3,0-0.5,0-0.8,0c-15.5-0.6-21.3-13.8-21.3-22c0-5.6,2.1-9.5,4.4-13.6
				c1-1.9,2.1-3.8,3-6c3-7.2,4.3-12.3,4.5-17.1c0.1-4.3,1.4-4.3,2.6-4.3h15.4c1.3,0,2.5,0,2.6,4.3c0.2,4.8,1.5,9.9,4.5,17.1
				c0.9,2.2,2,4.1,3,6c2.3,4.1,4.4,8,4.4,13.6C3.8-13.8-2-0.6-17.5,0c-0.3,0-0.6,0-0.8,0H-18.5L-18.5,0L-18.5,0z M-10.7-65.8h-15.4
				c-3.6,0-5.3,2.2-5.5,7c-0.2,4.4-1.4,9.2-4.3,16.1c-0.8,2-1.9,3.9-2.8,5.7c-2.3,4.2-4.7,8.6-4.7,15c0,10,7.5,24.3,24,24.9
				c0.3,0,0.6,0,0.9,0h0.2c0.3,0,0.6,0,1,0c16.5-0.6,24-14.9,24-24.9c0-6.4-2.4-10.7-4.7-15c-1-1.8-2-3.7-2.8-5.7
				c-2.9-6.9-4.1-11.7-4.3-16.1C-5.4-63.7-7.1-65.8-10.7-65.8"/>
		</g>
		<g id="g144" transform="matrix(4.5858755,0,0,-4.5998425,84.375062,777.90477)">
			<path id="path146" class="st0" d="M-18.5,0c-4,1-6.4,4.9-5.5,8.9c0.9,4,4.9,6.4,8.9,5.5c4-1,6.4-4.9,5.5-8.9
				C-10.6,1.5-14.6-0.9-18.5,0 M-5.9,4.4c0,0.1,0,0.1,0.1,0.2C-5.7,5.4-5.6,6.2-5.5,7l-2.2,0.8c0,0.3,0,0.5-0.1,0.8l1.9,1.3
				c-0.2,0.8-0.5,1.7-0.9,2.4L-9,11.9c-0.2,0.2-0.3,0.5-0.5,0.7l1.1,2.1c-0.6,0.6-1.2,1.2-1.9,1.7l-1.9-1.3
				c-0.3,0.2-0.5,0.3-0.8,0.4l0,2.3c-0.4,0.1-0.8,0.3-1.2,0.4c-0.4,0.1-0.8,0.2-1.2,0.2l-1-2.1c-0.3,0-0.6,0-0.9,0l-1.1,2
				c-0.8-0.1-1.7-0.3-2.5-0.7l0-2.3c-0.3-0.1-0.5-0.3-0.8-0.4l-1.9,1.3c-0.7-0.5-1.3-1.1-1.9-1.8l1.1-2.1c-0.1-0.2-0.3-0.4-0.4-0.6
				l-2.3,0.3c-0.3-0.7-0.6-1.5-0.8-2.3c0-0.1,0-0.1,0-0.2l2-1.3c0-0.2,0-0.4-0.1-0.6l-2.2-0.8c0-0.9,0.2-1.8,0.4-2.7l2.3-0.2
				c0.1-0.2,0.1-0.3,0.2-0.5l-1.5-1.7c0.4-0.8,1-1.5,1.6-2.2l2.2,0.9c0.1-0.1,0.2-0.2,0.4-0.3l-0.6-2.2c0.8-0.5,1.6-0.9,2.5-1.3
				l1.5,1.8c0.1,0,0.1,0,0.2-0.1c0.1,0,0.1,0,0.2,0l0.5-2.3c0.9-0.1,1.9-0.1,2.8,0l0.5,2.3c0.2,0,0.3,0.1,0.5,0.1l1.5-1.8
				c0.9,0.3,1.7,0.7,2.4,1.3l-0.6,2.2c0.1,0.1,0.3,0.2,0.4,0.4l2.2-0.8C-7.9,0.3-7.3,1-6.9,1.8l-1.6,1.7c0.1,0.2,0.2,0.4,0.2,0.6
				L-5.9,4.4z"/>
		</g>
		<g id="g148" transform="matrix(4.5858755,0,0,-4.5998425,143.5191,830.89266)">
			<path id="path150" class="st0" d="M-18.5,0c-2.7,0.6-4.3,3.3-3.7,6c0.6,2.7,3.3,4.3,6,3.7c2.7-0.6,4.4-3.3,3.7-6
				C-13.1,1-15.8-0.6-18.5,0 M-10,3c0,0,0,0.1,0,0.1c0.1,0.5,0.2,1.1,0.2,1.6l-1.5,0.5c0,0.2,0,0.3-0.1,0.5l1.3,0.9
				c-0.1,0.6-0.3,1.1-0.6,1.6l-1.5-0.2c-0.1,0.2-0.2,0.3-0.3,0.5l0.7,1.4c-0.4,0.4-0.8,0.8-1.3,1.1l-1.3-0.9
				c-0.2,0.1-0.4,0.2-0.6,0.3l0,1.6c-0.3,0.1-0.5,0.2-0.8,0.2c-0.3,0.1-0.6,0.1-0.8,0.2l-0.7-1.4c-0.2,0-0.4,0-0.6,0l-0.7,1.4
				c-0.6-0.1-1.1-0.2-1.7-0.4l0-1.6c-0.2-0.1-0.3-0.2-0.5-0.3l-1.3,0.9c-0.5-0.3-0.9-0.7-1.3-1.2l0.8-1.4c-0.1-0.1-0.2-0.3-0.3-0.4
				l-1.5,0.2c-0.2-0.5-0.4-1-0.6-1.6c0,0,0-0.1,0-0.1l1.3-0.9c0-0.1,0-0.3,0-0.4L-25,4.6c0-0.6,0.1-1.2,0.3-1.8l1.6-0.2
				c0-0.1,0.1-0.2,0.1-0.3l-1-1.2c0.3-0.5,0.7-1,1.1-1.5l1.5,0.6c0.1-0.1,0.2-0.1,0.2-0.2l-0.4-1.5c0.5-0.3,1.1-0.6,1.7-0.8l1,1.2
				c0,0,0.1,0,0.1,0c0,0,0.1,0,0.1,0l0.4-1.5c0.6-0.1,1.3-0.1,1.9,0l0.3,1.5c0.1,0,0.2,0,0.3,0.1l1-1.2c0.6,0.2,1.1,0.5,1.6,0.9
				l-0.4,1.5c0.1,0.1,0.2,0.2,0.3,0.2l1.5-0.6c0.4,0.4,0.8,0.9,1.1,1.5l-1.1,1.1c0.1,0.1,0.1,0.3,0.2,0.4C-11.6,2.8-10,3-10,3z"/>
		</g>
		<g id="g152" transform="matrix(4.5858755,0,0,-4.5998425,166.80205,765.89321)">
			<path id="path154" class="st0" d="M-18.5,0c-1.9,0.4-3,2.3-2.6,4.2s2.3,3,4.2,2.6c1.9-0.4,3-2.3,2.6-4.2
				C-14.8,0.7-16.7-0.4-18.5,0 M-12.6,2.1C-12.6,2.1-12.5,2.1-12.6,2.1c0.1,0.5,0.2,0.9,0.2,1.2l-1,0.4c0,0.1,0,0.2,0,0.4l0.9,0.6
				C-12.6,5-12.8,5.4-13,5.8L-14,5.6c-0.1,0.1-0.1,0.2-0.2,0.3l0.5,1c-0.3,0.3-0.6,0.6-0.9,0.8l-0.9-0.6c-0.1,0.1-0.3,0.1-0.4,0.2
				l0,1.1c-0.2,0.1-0.4,0.1-0.6,0.2c-0.2,0-0.4,0.1-0.6,0.1l-0.5-1c-0.1,0-0.3,0-0.4,0l-0.5,1c-0.4-0.1-0.8-0.2-1.2-0.3l0-1.1
				c-0.1-0.1-0.2-0.1-0.4-0.2l-0.9,0.6c-0.3-0.2-0.6-0.5-0.9-0.8l0.5-1c-0.1-0.1-0.1-0.2-0.2-0.3l-1.1,0.1c-0.2-0.3-0.3-0.7-0.4-1.1
				c0,0,0-0.1,0-0.1l0.9-0.6c0-0.1,0-0.2,0-0.3l-1-0.4c0-0.4,0.1-0.9,0.2-1.3l1.1-0.1c0-0.1,0.1-0.2,0.1-0.2l-0.7-0.8
				c0.2-0.4,0.5-0.7,0.8-1l1,0.4c0.1-0.1,0.1-0.1,0.2-0.1L-20.7-1c0.4-0.2,0.7-0.4,1.2-0.6l0.7,0.8c0,0,0.1,0,0.1,0c0,0,0.1,0,0.1,0
				l0.3-1.1c0.4-0.1,0.9-0.1,1.3,0l0.2,1.1c0.1,0,0.1,0,0.2,0.1l0.7-0.8c0.4,0.2,0.8,0.4,1.2,0.6L-15,0c0.1,0.1,0.1,0.1,0.2,0.2
				l1-0.4c0.3,0.3,0.5,0.7,0.7,1l-0.7,0.8c0,0.1,0.1,0.2,0.1,0.3C-13.7,1.9-12.6,2.1-12.6,2.1z"/>
		</g>
		<g id="g156" transform="matrix(4.5858755,0,0,-4.5998425,92.127032,827.12401)">
			<path id="path158" class="st0" d="M-18.5,0c-1.3,0.3-2.2,1.7-1.8,3c0.3,1.3,1.7,2.2,3,1.8c1.3-0.3,2.2-1.7,1.8-3
				C-15.9,0.5-17.2-0.3-18.5,0 M-14.3,1.5C-14.3,1.5-14.3,1.5-14.3,1.5c0.1,0.3,0.1,0.6,0.1,0.9l-0.7,0.3c0,0.1,0,0.2,0,0.3l0.7,0.4
				c-0.1,0.3-0.2,0.6-0.3,0.8L-15.3,4c-0.1,0.1-0.1,0.2-0.2,0.2l0.4,0.7c-0.2,0.2-0.4,0.4-0.6,0.6l-0.6-0.5
				c-0.1,0.1-0.2,0.1-0.3,0.1l0,0.8c-0.1,0-0.3,0.1-0.4,0.1c-0.1,0-0.3,0.1-0.4,0.1l-0.3-0.7c-0.1,0-0.2,0-0.3,0l-0.4,0.7
				c-0.3,0-0.6-0.1-0.8-0.2l0-0.8c-0.1,0-0.2-0.1-0.3-0.1l-0.6,0.4c-0.2-0.2-0.4-0.4-0.6-0.6l0.4-0.7C-20.5,4.1-20.6,4-20.6,4
				l-0.8,0.1c-0.1-0.2-0.2-0.5-0.3-0.8c0,0,0,0,0-0.1l0.7-0.4c0-0.1,0-0.2,0-0.2l-0.7-0.3c0-0.3,0.1-0.6,0.1-0.9l0.8-0.1
				c0-0.1,0-0.1,0.1-0.2l-0.5-0.6c0.1-0.3,0.3-0.5,0.5-0.7l0.7,0.3c0,0,0.1-0.1,0.1-0.1l-0.2-0.8c0.3-0.2,0.5-0.3,0.8-0.4l0.5,0.6
				c0,0,0,0,0.1,0c0,0,0.1,0,0.1,0l0.2-0.8c0.3,0,0.6,0,0.9,0l0.2,0.8c0.1,0,0.1,0,0.2,0l0.5-0.6c0.3,0.1,0.6,0.2,0.8,0.4L-16,0
				c0,0,0.1,0.1,0.1,0.1l0.7-0.3c0.2,0.2,0.4,0.5,0.5,0.7l-0.5,0.6c0,0.1,0.1,0.1,0.1,0.2C-15.1,1.4-14.3,1.5-14.3,1.5z"/>
		</g>
	</g>
</g>
</svg>
