<svg id="Layer_1" data-name="Layer 1" xmlns="http://www.w3.org/2000/svg" viewBox="0 0 64 64">
  <title>random</title>
  <path style="fill: currentColor;" d="M45,12c-1.46,0-2.65.75-4.78,2L32.8,18.27c-2.13,1.23-3.37,1.88-4.1,3.15S28,24.09,28,26.55v8.58c0,2.46-.07,3.86.67,5.13s2,1.92,4.1,3.15l7.43,4.29c2.13,1.23,3.32,2,4.78,2s2.65-.75,4.78-2l7.43-4.29c2.13-1.23,3.37-1.88,4.11-3.15s.67-2.67.67-5.13V26.55c0-2.46.06-3.86-.67-5.13s-2-1.92-4.11-3.15L49.79,14C47.66,12.75,46.48,12,45,12Zm0,2.08c.67,0,1.61.47,3.74,1.7l7.43,4.29a25.05,25.05,0,0,1,2.58,1.63l-10,5.78c-2.13,1.23-3.07,1.71-3.74,1.71s-1.61-.48-3.74-1.71l-10-5.78a23.73,23.73,0,0,1,2.58-1.62l7.43-4.29c2.13-1.23,3.08-1.71,3.74-1.71Zm-8.39,6.11c-1.38,0-2.51.64-2.51,1.44s1.13,1.45,2.51,1.45,2.51-.65,2.51-1.45a1.29,1.29,0,0,0-.76-1,3.71,3.71,0,0,0-1.75-.41Zm8.39,0c-1.38,0-2.5.64-2.5,1.44s1.12,1.45,2.5,1.45,2.51-.65,2.51-1.45a1.26,1.26,0,0,0-.71-1,3.6,3.6,0,0,0-1.8-.43Zm8.39,0c-1.38,0-2.5.64-2.5,1.44s1.12,1.45,2.5,1.45,2.51-.65,2.51-1.45a1.27,1.27,0,0,0-.76-1,3.8,3.8,0,0,0-1.75-.41Zm6.4,3.31a24.63,24.63,0,0,1,.12,3.05v8.58c0,2.46-.06,3.52-.39,4.09s-1.22,1.16-3.35,2.39L48.75,45.9a25.32,25.32,0,0,1-2.7,1.42V35.76c0-2.46.06-3.52.39-4.09s1.22-1.16,3.35-2.39Zm-29.58,0,10,5.78c2.13,1.23,3,1.81,3.35,2.39S44,33.3,44,35.76V47.32a29.87,29.87,0,0,1-2.7-1.42l-7.43-4.29c-2.13-1.23-3-1.81-3.34-2.39s-.4-1.63-.4-4.09V26.55a24.74,24.74,0,0,1,.12-3.05Zm27.63,2.4a1.53,1.53,0,0,0-.69.25,3.6,3.6,0,0,0-1.23,1.3c-.69,1.2-.69,2.5,0,2.9s1.81-.25,2.51-1.45.69-2.49,0-2.89a.91.91,0,0,0-.59-.11ZM40.54,30.74a1,1,0,0,0-.56.11c-.69.4-.69,1.7,0,2.9s1.81,1.84,2.51,1.44.69-1.69,0-2.89A3.6,3.6,0,0,0,41.21,31a1.7,1.7,0,0,0-.67-.22Zm8.94,0a1.66,1.66,0,0,0-.66.22,3.6,3.6,0,0,0-1.28,1.34c-.69,1.2-.69,2.49,0,2.89s1.81-.25,2.51-1.44.69-2.5,0-2.9a1,1,0,0,0-.57-.11Zm8.39,0a1.66,1.66,0,0,0-.66.22,3.6,3.6,0,0,0-1.28,1.34c-.69,1.2-.69,2.49,0,2.89s1.81-.25,2.51-1.44.69-2.5,0-2.9a1,1,0,0,0-.57-.11ZM32.15,35.58a1,1,0,0,0-.56.12c-.69.4-.69,1.69,0,2.89S33.41,40.44,34.1,40s.69-1.7,0-2.89a3.6,3.6,0,0,0-1.28-1.34,1.73,1.73,0,0,0-.67-.23Zm17.33,0a1.69,1.69,0,0,0-.66.23,3.65,3.65,0,0,0-1.28,1.33c-.69,1.2-.69,2.5,0,2.9s1.81-.25,2.51-1.45.69-2.49,0-2.89a1,1,0,0,0-.57-.12Zm8.39,0a1.69,1.69,0,0,0-.66.23,3.6,3.6,0,0,0-1.28,1.34c-.69,1.19-.69,2.49,0,2.89s1.81-.25,2.51-1.45.69-2.49,0-2.89a1,1,0,0,0-.57-.12Zm-8.41,4.85a1.66,1.66,0,0,0-.69.25A3.55,3.55,0,0,0,47.54,42c-.69,1.2-.69,2.49,0,2.89s1.81-.25,2.51-1.44.69-2.5,0-2.9a1,1,0,0,0-.59-.11Z"/>
  <path style="fill: currentColor;" d="M25.41,46.59a2,2,0,0,0-2.82,0L18,51.17V8a2,2,0,0,0-4,0V51.17L9.41,46.59a2,2,0,0,0-2.82,2.82l8,8h0L16,58.83l1.41-1.41h0l8-8A2,2,0,0,0,25.41,46.59Z"/>
</svg>
