<svg id="Layer_1" data-name="Layer 1" xmlns="http://www.w3.org/2000/svg" viewBox="0 0 64 64">
  <title>time</title>
  <path style="fill: currentColor;" id="clock" d="M43.91,48.12a16,16,0,1,0-11.32-4.69,16,16,0,0,0,11.32,4.69Zm0-29.4a13.4,13.4,0,1,1-9.48,3.93,13.45,13.45,0,0,1,9.48-3.93Zm3.81,18.19a1.3,1.3,0,0,0,.74-.23,1.26,1.26,0,0,0,.48-.61A1.27,1.27,0,0,0,49,35.3a1.29,1.29,0,0,0-.4-.67l-3.39-3.09v-9.8a1.3,1.3,0,0,0-1.31-1.31,1.31,1.31,0,0,0-1.31,1.31v11l4.25,3.87a1.31,1.31,0,0,0,.88.34Z"/>
  <path style="fill: currentColor;" id="arrow" d="M25.41,46.59a2,2,0,0,0-2.82,0L18,51.17V8a2,2,0,0,0-4,0V51.17L9.41,46.59a2,2,0,0,0-2.82,2.82L16,58.83l9.41-9.42A2,2,0,0,0,25.41,46.59Z"/>
</svg>
