<svg id="Layer_1" data-name="Layer 1" xmlns="http://www.w3.org/2000/svg" xmlns:xlink="http://www.w3.org/1999/xlink" viewBox="0 0 300 100">
  <defs>
    <clipPath id="clip-path">
      <path d="M32.32,86.1,13.53,75.25,13.64,37,32.43,47.8l-.11,38.3m-.16-23.18L13.6,52.2V56L32.15,66.68V62.92" style="fill: none"/>
    </clipPath>
  </defs>
  <title>Artboard 1</title>
  <line id="Line" x1="47.26" y1="97" x2="206" y2="5.69" style="fill: none;stroke: #999;stroke-miterlimit: 10; opacity: .5;"/>
  <g id="Toolkit">
    <polyline id="Box_Side" data-name="Box Side" points="39.87 69.24 8 50.84 8 76.6 39.87 95 39.87 69.24" style="fill: red;stroke: #fff;stroke-linejoin: round"/>
    <polygon id="Box_Front" data-name="Box Front" points="39.87 95 94.05 63.72 94.05 26.92 39.87 58.2 39.87 95" style="fill: red;stroke: #fff;stroke-linejoin: round"/>
    <g id="Lid_Top" data-name="Lid Top">
      <polygon points="84.49 10.36 71.74 3 17.56 34.28 30.31 41.64 39.87 58.2 39.87 69.24 94.05 37.96 94.05 26.92 84.49 10.36" style="fill: red;stroke: #fff;stroke-linejoin: round"/>
      <line x1="84.49" y1="10.36" x2="30.31" y2="41.64" style="fill: none;stroke: #fff;stroke-linejoin: round;stroke-width: 0.5px"/>
      <line x1="94.05" y1="26.92" x2="39.87" y2="58.2" style="fill: none;stroke: #fff;stroke-linejoin: round;stroke-width: 0.5px"/>
    </g>
    <polygon id="Lid_SIde" data-name="Lid SIde" points="8 39.8 8 50.84 39.87 69.24 39.87 58.2 30.31 41.64 17.56 34.28 8 39.8" style="fill: red;stroke: #fff;stroke-linejoin: round"/>
    <g id="Handle">
      <polygon points="60.59 7.6 57.4 5.67 41.46 14.87 38.28 20.39 38.28 27.75 41.46 29.68 44.65 27.84 44.65 22.32 46.24 19.56 58.99 12.2 60.59 13.12 60.58 18.64 63.77 16.8 63.77 9.44 60.59 7.6" style="fill: red;stroke: #fff;stroke-linejoin: round"/>
      <polygon points="60.58 18.64 57.4 16.8 57.4 13.12 58.99 12.2 60.59 13.12 60.58 18.64" style="fill: red;stroke: #fff;stroke-linejoin: round"/>
      <polyline points="60.59 7.6 44.65 16.8 41.46 22.32 41.46 29.68" style="fill: none;stroke: #fff;stroke-linejoin: round;stroke-width: 0.5px"/>
      <line x1="44.65" y1="16.8" x2="41.46" y2="14.87" style="fill: none;stroke: #fff;stroke-linejoin: round;stroke-width: 0.5px"/>
      <line x1="38.28" y1="20.39" x2="41.46" y2="22.32" style="fill: none;stroke: #fff;stroke-linejoin: round;stroke-width: 0.5px"/>
    </g>
    <g id="Latch">
      <polygon points="70.46 62.57 63.81 66.41 63.81 51.03 70.47 47.19 70.46 62.57" style="fill: red;stroke: #fff;stroke-linejoin: round"/>
      <polygon points="64.92 52.95 64.92 61.93 67.14 63.21 71.58 60.65 71.58 51.67 69.36 50.39 64.92 52.95" style="fill: red;stroke: #fff;stroke-linejoin: round"/>
      <polyline points="71.58 51.67 67.14 54.24 67.14 63.21" style="fill: none;stroke: #fff;stroke-linejoin: round;stroke-width: 0.5px"/>
      <line x1="67.14" y1="54.24" x2="64.92" y2="52.95" style="fill: red;stroke: #fff;stroke-linejoin: round;stroke-width: 0.5px"/>
    </g>
  </g>
  <g id="Logo">
    <g style="isolation: isolate">
      <g style="clip-path: url(#clip-path)">
        <path d="M30,65.44l-1.24-.72c-.09.17-.18.34-.26.53a16.47,16.47,0,0,0-1.72,6.43c0,1.84-.49,1.58-1,1.3L20,69.64c-.45-.27-.94-.55-1-2.43a33.81,33.81,0,0,0-1.67-8.39c-.08-.28-.17-.55-.26-.82l-1.22-.71c.17.47.33,1,.46,1.42a31.73,31.73,0,0,1,1.6,7.91c.07,2.13.7,3.45,2.06,4.23l5.79,3.35c1.35.78,2,.24,2.11-1.83a15.34,15.34,0,0,1,1.64-6c.14-.31.29-.61.45-.89M23.39,43,23,42.77l-.07,0-.34-.2c-5.67-3-8.53.52-9,4.46V49.4a17.22,17.22,0,0,0,.63,3.18l1.16.67a14.32,14.32,0,0,1-.8-4.52c0-3.56,2.21-8,8-4.91l.3.17L23,44l.3.17c5.83,3.62,8,10.6,8,14.16a7.24,7.24,0,0,1-.82,3.57l1.18.69A8.44,8.44,0,0,0,32.38,59c0-4.33-2.79-12.15-9-16" style="fill: #f0d103"/>
        <path d="M20.54,75.51c-.26-.15-.48-.37-.48-.5s.22-.08.48.07l4.71,2.71c.26.15.48.37.48.5s-.22.09-.48-.06l-4.71-2.72m0-1.86c-.27-.15-.49-.37-.49-.5s.23-.09.49.06l4.7,2.72c.26.15.49.37.49.49s-.23.09-.49-.06l-4.7-2.71m5.65,1.17L19.54,71c-.45-.26-.83,0-.83.47a1.8,1.8,0,0,0,.6,1.26c-.34-.11-.6.13-.6.56a1.79,1.79,0,0,0,.59,1.27c-.34-.07-.6.12-.6.56a1.86,1.86,0,0,0,.83,1.43l6.65,3.84A.51.51,0,0,0,27,79.9a1.8,1.8,0,0,0-.6-1.26c.34.11.6-.13.6-.57a1.84,1.84,0,0,0-.6-1.26c.34.07.61-.13.61-.56a1.87,1.87,0,0,0-.82-1.43" style="fill: #fff"/>
        <path d="M25.66,80.44,20.1,77.23a7.34,7.34,0,0,0,2.78,3.21,2.3,2.3,0,0,0,2.78,0" style="fill: #fff"/>
        <path d="M21.06,53.59a4.14,4.14,0,0,1-.62-.44,5.85,5.85,0,0,1-2.06-5.06c.29-1.31,1.45-1.63,2.72-.89a4,4,0,0,1,.63.44,5.82,5.82,0,0,1,2.06,5c-.33,1.31-1.48,1.62-2.73.9m.57-7.74-.38.69-.34-.2-.41-1.1a2.51,2.51,0,0,0-.94-.24v1c-.12,0-.2,0-.3,0l-.72-1a2,2,0,0,0-.72.37l.42,1.15c0,.06-.12.1-.16.17l-.86-.63a4.23,4.23,0,0,0-.3.83V47l.74,1a.63.63,0,0,1,0,.24l-.83-.14A7.41,7.41,0,0,0,17,49.36l.86.58c0,.1,0,.15.08.26l-.57.41a10,10,0,0,0,.6,1.3l.83.08a.81.81,0,0,0,.15.23l-.23.82c.3.39.6.74.94,1.11l.56-.46.08.08.07,0,.19,1.1a6,6,0,0,0,.53.34,4.3,4.3,0,0,0,.52.27l.19-.89c.08,0,.12,0,.19.07l.56,1.11a1.58,1.58,0,0,0,.9,0l-.22-1.08s.12,0,.16-.09l.82.83a1.29,1.29,0,0,0,.64-.54l-.6-1.09a.39.39,0,0,0,.08-.21l.9.39,0-.07.12-1-.83-.82a1.3,1.3,0,0,0,0-.37l.72-.15a8.51,8.51,0,0,0-.34-1.24l-.82-.3c-.08-.13-.12-.27-.19-.41l.41-.67c-.22-.39-.45-.78-.71-1.15l-.72.15a2.7,2.7,0,0,0-.29-.35v-1c-.16-.13-.3-.3-.45-.44a2.66,2.66,0,0,0-.45-.34" style="fill: #fff"/>
        <path d="M26,56l-.26.45-.23-.12-.26-.76a3.15,3.15,0,0,0-.64-.2V56l-.19,0-.48-.66a.83.83,0,0,0-.5.23l.3.78-.11.11-.57-.42c-.07.18-.14.35-.22.57v0l.48.68v.16h-.48l1,.58a2.67,2.67,0,0,1,.05-.58c.2-.9,1-1.1,1.84-.61a3.64,3.64,0,0,1,.42.3,4.08,4.08,0,0,1,1.44,3.05l1,.56v-.05L28,60.25A.55.55,0,0,0,28,60l.49-.1a3.64,3.64,0,0,0-.22-.83l-.57-.24c0-.11-.07-.17-.11-.28l.26-.45a5.41,5.41,0,0,0-.48-.76l-.49.1a2.85,2.85,0,0,1-.23-.26V56.5a2.12,2.12,0,0,0-.3-.26c-.12-.11-.23-.17-.31-.26" style="fill: #fff"/>
        <path d="M27.48,56.11a1.54,1.54,0,0,1-.28-.19,2.76,2.76,0,0,1-1-2.39c.14-.63.69-.77,1.29-.42l.3.21a2.72,2.72,0,0,1,1,2.38c-.17.62-.72.75-1.3.41m.26-3.66-.19.33-.15-.09-.19-.54L26.76,52v.48a1.1,1.1,0,0,1-.16,0L26.27,52a1,1,0,0,0-.34.15l.19.54-.08.09-.41-.28a.88.88,0,0,0-.15.39v0l.34.45v.14l-.37-.05a3.46,3.46,0,0,0,.07.61l.41.28,0,.11-.26.19a2.88,2.88,0,0,0,.3.61l.37,0,.08.09-.08.44c.15.17.26.32.45.51l.27-.19,0,0,0,0,.11.54a1.44,1.44,0,0,0,.25.18,1,1,0,0,0,.24.11l.08-.43h.07l.27.5h.44l-.1-.45.07,0L29,57a.9.9,0,0,0,.27-.28l-.26-.5,0-.1.42.15a2.65,2.65,0,0,0,.08-.48l-.38-.39v-.17l.34-.07c0-.15-.11-.36-.19-.58l-.38-.13-.07-.18L29,54a3.87,3.87,0,0,0-.34-.54l-.34.06-.14-.17v-.47c-.08-.09-.15-.14-.23-.22s-.15-.13-.22-.18" style="fill: #fff"/>
        <path d="M21.48,55.75l-.11.24-.12-.07-.14-.39a1,1,0,0,0-.3-.09v.35l-.12,0-.23-.31-.22.13.15.4c-.08-.05-.11,0-.11,0l-.3-.21a.54.54,0,0,0-.06.11l.6.34a.58.58,0,0,1,.76-.05l.24.18a2.08,2.08,0,0,1,.55.77l.56.32c0-.08,0-.16-.06-.22l-.3-.09L22.19,57l.16-.22c-.08-.12-.16-.25-.23-.38l-.23.08-.11-.1V56l-.16-.13-.15-.13" style="fill: #fff"/>
      </g>
    </g>
  </g>
  <g id="Toolkit-2" data-name="Toolkit">
    <polyline class="graphics-fill-foreground" id="T" points="175.94 42.06 164.19 35.28 161.09 37.08 165.21 39.45 149.98 48.3 153.51 50.33 168.73 41.49 172.84 43.86 175.94 42.06" />
    <path class="graphics-fill-broken" id="O" d="M168.07,55.45c-.71-.41-1.1-.84-1.15-1.28s.43-1,1.44-1.55l7.46-4.34a5.07,5.07,0,0,1,2.67-.84,4.73,4.73,0,0,1,2.22.67c.71.41,1.1.84,1.15,1.28s-.43,1-1.44,1.55L173,55.27a5.12,5.12,0,0,1-2.67.84,4.83,4.83,0,0,1-2.22-.66m15.73-9.14a12.52,12.52,0,0,0-2.68-1.17,10.76,10.76,0,0,0-2.89-.45,11.33,11.33,0,0,0-3.09.41,13.21,13.21,0,0,0-3.3,1.41l-6.55,3.81a8.5,8.5,0,0,0-2.43,1.92,2.39,2.39,0,0,0,.1,3.46,8.41,8.41,0,0,0,2,1.55,12.41,12.41,0,0,0,2.67,1.16,10.1,10.1,0,0,0,2.9.45,11.36,11.36,0,0,0,3.09-.4,14,14,0,0,0,3.3-1.42l6.54-3.8a8.75,8.75,0,0,0,2.44-1.92,2.74,2.74,0,0,0,.69-1.79,2.7,2.7,0,0,0-.79-1.67,8.11,8.11,0,0,0-2-1.55" />
    <path class="graphics-fill-partial" id="O-2" data-name="O" d="M182.27,63.65c-.71-.41-1.1-.84-1.15-1.28s.43-1,1.44-1.55L190,56.48a5.07,5.07,0,0,1,2.67-.84,4.73,4.73,0,0,1,2.22.67c.71.41,1.1.84,1.15,1.28s-.43,1-1.44,1.55l-7.46,4.33a5.12,5.12,0,0,1-2.67.84,4.79,4.79,0,0,1-2.22-.66M198,54.51a12.52,12.52,0,0,0-2.68-1.17,10.83,10.83,0,0,0-2.89-.45,11.33,11.33,0,0,0-3.09.41,13.21,13.21,0,0,0-3.3,1.41l-6.55,3.81a8.67,8.67,0,0,0-2.43,1.91,2.7,2.7,0,0,0-.69,1.8,2.67,2.67,0,0,0,.79,1.67,8.54,8.54,0,0,0,2,1.55,12.7,12.7,0,0,0,2.68,1.16,10.1,10.1,0,0,0,2.9.45,11.36,11.36,0,0,0,3.09-.4,14,14,0,0,0,3.3-1.42l6.54-3.8a8.75,8.75,0,0,0,2.44-1.92,2.4,2.4,0,0,0-.1-3.47,8.34,8.34,0,0,0-2-1.54" />
    <polyline class="graphics-fill-working" id="L" points="209.96 61.7 206.43 59.67 188.11 70.31 197.31 75.62 200.4 73.82 194.73 70.55 209.96 61.7" />
    <polyline class="graphics-fill-missing" id="K" points="229.77 73.14 225.92 70.92 213.78 72.67 213.73 72.64 221.29 68.25 217.77 66.21 199.45 76.86 202.97 78.89 208.58 75.64 212.04 75.22 208.03 81.81 211.99 84.1 217.64 74.69 229.77 73.14" />
    <polyline class="graphics-fill-wanted" id="I" points="235.7 76.56 232.17 74.53 213.85 85.17 217.38 87.21 235.7 76.56" />
    <polyline class="graphics-fill-foreground" id="T-2" data-name="T" points="249.74 84.67 238 77.89 234.9 79.69 239.01 82.06 223.79 90.91 227.31 92.95 242.54 84.1 246.65 86.47 249.74 84.67" />
  </g>
  <path class="graphics-fill-foreground" id="Makerspace" d="M199,30.73,184.8,39l-2.35-1.36,11.21-6.51,0,0-14.13,4.83-2.07-1.19,8.29-8.2,0,0L174.47,33l-2.35-1.35,14.25-8.28,3.83,2.21-6.86,6.87,0,0,11.84-4L199,30.73m-3.28,8.35,2.72,1.57,4.44-4.13,0,0-7.12,2.58m12-3.32L197,46l-2.62-1.52,2.3-2.15-3.79-2.18-3.78,1.29L186.45,40l17.8-6.23,3.51,2M222,44l-3-1.73-9.43,1.37,0,0,5.88-3.41-2.74-1.59-14.25,8.28,2.74,1.59,4.36-2.54,2.69-.32-3.12,5.13,3.08,1.77,4.4-7.31L222,44m9.22,5.33L223.75,45l-14.24,8.28,7.7,4.45,2.41-1.4-5-2.87,3.75-2.18,3.63,2.1,2.4-1.4-3.63-2.09L224.09,48l4.77,2.75,2.4-1.39m-1,6.58,1.4.81a4,4,0,0,0,1.9.56,3.81,3.81,0,0,0,2-.58c.7-.41,1-.8,1-1.18s-.35-.74-1-1.1l-1.41-.81-4,2.3M237.65,53c1.66,1,2.52,1.88,2.56,2.77s-.59,1.73-2,2.52a8.14,8.14,0,0,1-2.78,1,7.21,7.21,0,0,1-3-.16l-3.66,5.25-2.94-1.7L229.29,58,228,57.22l-5.8,3.37L219.43,59l14.25-8.28,4,2.3M249,59.36a8.57,8.57,0,0,0-4.29-1.24,7.73,7.73,0,0,0-4,1.07,2.59,2.59,0,0,0-1.24,1.25,2.51,2.51,0,0,0-.08,1.36,4.94,4.94,0,0,0,.54,1.38,12.39,12.39,0,0,1,.65,1.33,2.63,2.63,0,0,1,.24,1.18,1.18,1.18,0,0,1-.7.93,3.23,3.23,0,0,1-1.74.44,3.36,3.36,0,0,1-1.64-.43,1.77,1.77,0,0,1-.51-.43,1.06,1.06,0,0,1-.24-.59,1.32,1.32,0,0,1,.2-.72,2.92,2.92,0,0,1,.75-.84l-3.28-1.22c-1,1-1.46,2-1.28,2.8a3.69,3.69,0,0,0,2,2.23,9.48,9.48,0,0,0,2.21.94,8.94,8.94,0,0,0,2.25.36,8.33,8.33,0,0,0,2.18-.23,7,7,0,0,0,2-.8,3.26,3.26,0,0,0,1.43-1.36,2.64,2.64,0,0,0,.24-1.44,4.37,4.37,0,0,0-.48-1.44c-.25-.47-.46-.9-.67-1.31a3.39,3.39,0,0,1-.35-1.1.8.8,0,0,1,.48-.81,3.07,3.07,0,0,1,1.53-.44,2.86,2.86,0,0,1,1.54.4c.48.28.73.6.73.95a2,2,0,0,1-.64,1.32l3.18,1a3.65,3.65,0,0,0,.83-1.12,2,2,0,0,0,.17-1.17,2.38,2.38,0,0,0-.57-1.16,5.15,5.15,0,0,0-1.39-1.1m3.36,9.44,1.47.85a3.78,3.78,0,0,0,4,0c1.34-.78,1.34-1.56,0-2.35l-1.46-.84-4,2.34m7.48-3c1.7,1,2.59,1.92,2.67,2.83s-.55,1.76-1.9,2.55a8,8,0,0,1-4.39,1.11,10.44,10.44,0,0,1-4.9-1.53l-1.21-.7-5.73,3.32-2.73-1.58,14.24-8.28,3.95,2.28m.3,10.42,2.72,1.57,4.44-4.12,0,0-7.11,2.58m12-3.32L261.39,83.23l-2.63-1.52,2.31-2.15-3.79-2.18-3.78,1.29-2.64-1.52,17.8-6.23,3.52,2m9.43,5.22a9.87,9.87,0,0,0-2.08-.91,8.13,8.13,0,0,0-2.25-.35,8.86,8.86,0,0,0-2.4.32,10.58,10.58,0,0,0-2.57,1.1l-5.09,3a6.7,6.7,0,0,0-1.89,1.49,2.1,2.1,0,0,0-.54,1.39,2,2,0,0,0,.61,1.3A6.47,6.47,0,0,0,267,86.68a10.25,10.25,0,0,0,2.09.91,8.38,8.38,0,0,0,2.24.35,9.35,9.35,0,0,0,2.41-.32,11,11,0,0,0,2.57-1.1l.59-.35-2.75-1.58-.94.55a3.9,3.9,0,0,1-2.07.65,3.72,3.72,0,0,1-1.74-.51c-.55-.32-.85-.65-.89-1s.33-.75,1.12-1.21l5.8-3.37a4,4,0,0,1,2.08-.65,3.68,3.68,0,0,1,1.73.51c.55.33.85.66.89,1s-.33.74-1.12,1.2l-.4.23,2.75,1.58,0,0a6.7,6.7,0,0,0,1.89-1.49,2.2,2.2,0,0,0,.54-1.4,2.14,2.14,0,0,0-.61-1.3,6.73,6.73,0,0,0-1.58-1.2m14.07,8.35-7.51-4.34-14.25,8.28,7.71,4.45,2.41-1.4-5-2.87,3.75-2.18,3.64,2.1,2.4-1.39-3.64-2.1,3.28-1.91,4.77,2.75,2.41-1.39" />
  <path class="graphics-fill-foreground" id="Victoria" d="M215.46,17.34l-17.91,6.17-3.11-1.8L205,11.31l2.7,1.56-7.65,7.37,0,0,12.69-4.47,2.68,1.55m4.43,2.56-2.75-1.59L202.9,26.59l2.74,1.59,14.25-8.28m7.1,3.87a9.62,9.62,0,0,0-2.08-.9,8,8,0,0,0-2.24-.35,9,9,0,0,0-2.41.31,10.92,10.92,0,0,0-2.56,1.1l-5.1,3a6.85,6.85,0,0,0-1.89,1.5,1.88,1.88,0,0,0,.07,2.69,6.87,6.87,0,0,0,1.57,1.2,9.67,9.67,0,0,0,2.09.91,8.08,8.08,0,0,0,2.26.35,9.23,9.23,0,0,0,2.39-.31,10.63,10.63,0,0,0,2.57-1.11l.59-.34-2.74-1.58-.95.54a3.9,3.9,0,0,1-2.07.66,3.69,3.69,0,0,1-1.73-.52c-.55-.32-.85-.65-.89-1s.32-.75,1.12-1.21l5.8-3.37a3.88,3.88,0,0,1,2.08-.65,3.68,3.68,0,0,1,1.72.51c.56.32.86.66.9,1s-.34.74-1.12,1.2l-.4.23,2.74,1.59,0,0a6.85,6.85,0,0,0,1.89-1.49,2.09,2.09,0,0,0,.53-1.39,2,2,0,0,0-.61-1.3A6.8,6.8,0,0,0,227,23.77m14.87,8.81-9.14-5.27-2.41,1.39,3.2,1.85-11.84,6.88L224.41,39l11.85-6.89L239.45,34l2.41-1.4M235.74,43a3.69,3.69,0,0,0,1.73.52,3.88,3.88,0,0,0,2.07-.65l5.81-3.38c.78-.45,1.16-.85,1.12-1.2s-.34-.68-.9-1a3.85,3.85,0,0,0-1.73-.52,4.09,4.09,0,0,0-2.07.66L236,40.79c-.8.46-1.17.87-1.13,1.21s.35.67.9,1M248,35.89a6.73,6.73,0,0,1,1.58,1.2,1.86,1.86,0,0,1,.07,2.69,6.7,6.7,0,0,1-1.89,1.49l-5.09,3a10.58,10.58,0,0,1-2.57,1.1,8.53,8.53,0,0,1-2.4.32,8.14,8.14,0,0,1-2.26-.35,10.1,10.1,0,0,1-2.08-.91,6.65,6.65,0,0,1-1.57-1.2,2,2,0,0,1-.6-1.3,2.11,2.11,0,0,1,.52-1.4,6.92,6.92,0,0,1,1.9-1.49l5.09-3a10.58,10.58,0,0,1,2.57-1.1,9.33,9.33,0,0,1,2.41-.31,8.06,8.06,0,0,1,2.24.35,9.38,9.38,0,0,1,2.08.91m3.1,9.19,1.42.82a4,4,0,0,0,1.89.55,3.78,3.78,0,0,0,2-.58c.69-.4,1-.79,1-1.17s-.36-.75-1-1.1L255,42.79l-4,2.29m7.43-2.89c1.66,1,2.52,1.88,2.56,2.77s-.6,1.73-1.95,2.52a8.24,8.24,0,0,1-2.77,1,7,7,0,0,1-3-.16l-3.65,5.25-2.94-1.7,3.42-4.75-1.31-.75L243,49.76l-2.73-1.58,14.24-8.28,4,2.29m10,5.76-2.74-1.58-14.25,8.28,2.74,1.58L268.47,48M265.2,56.3l2.72,1.57,4.43-4.12,0,0L265.2,56.3m12-3.32L266.41,63.26l-2.63-1.51,2.31-2.15-3.8-2.19-3.78,1.29-2.63-1.52L273.68,51l3.51,2" />
</svg>
