<svg id="Layer_1" data-name="Layer 1" xmlns="http://www.w3.org/2000/svg" xmlns:xlink="http://www.w3.org/1999/xlink" viewBox="0 0 332 100">
  <defs>
    <clipPath id="clip-path">
      <polygon points="39.65 77.8 39.77 38.15 59.22 49.38 59.11 89.03 39.65 77.8" style="fill: none"/>
    </clipPath>
    <clipPath id="clip-path-2">
      <path d="M59.11,89,39.65,77.8l.12-39.65L59.22,49.38,59.11,89m-.17-24L39.72,53.94v3.9L58.93,68.93V65" style="fill: none"/>
    </clipPath>
    <clipPath id="clip-path-3">
      <polygon points="42.1 79 42.16 59.25 56.77 67.68 56.71 87.43 42.1 79" style="fill: none"/>
    </clipPath>
    <clipPath id="clip-path-4">
      <polygon points="7.54 54.25 7.58 38.88 27.08 50.14 27.04 65.51 7.54 54.25" style="fill: none"/>
    </clipPath>
  </defs>
  <line id="Line" x1="81.93" y1="97" x2="240.67" y2="5.69" style="fill: none;stroke: #999;stroke-miterlimit: 10"/>
  <g id="Toolkit">
    <polyline class="graphics-fill-foreground" id="T" points="210.61 42.06 198.86 35.28 195.76 37.08 199.88 39.45 184.65 48.3 188.18 50.33 203.4 41.49 207.51 43.86 210.61 42.06"/>
    <path class="graphics-fill-broken" id="O" d="M202.74,55.45c-.71-.41-1.1-.84-1.15-1.28s.43-1,1.44-1.55l7.46-4.34a5.09,5.09,0,0,1,2.67-.84,4.73,4.73,0,0,1,2.22.67c.71.41,1.1.84,1.15,1.28s-.43,1-1.44,1.55l-7.46,4.33a5.12,5.12,0,0,1-2.67.84,4.83,4.83,0,0,1-2.22-.66m15.73-9.14a12.52,12.52,0,0,0-2.68-1.17,10.76,10.76,0,0,0-2.89-.45,11.33,11.33,0,0,0-3.09.41,13.21,13.21,0,0,0-3.3,1.41L200,50.32a8.5,8.5,0,0,0-2.43,1.92,2.39,2.39,0,0,0,.1,3.46,8.41,8.41,0,0,0,2,1.55,12.41,12.41,0,0,0,2.67,1.16,10.1,10.1,0,0,0,2.9.45,11.36,11.36,0,0,0,3.09-.4,14,14,0,0,0,3.3-1.42l6.54-3.8a8.75,8.75,0,0,0,2.44-1.92,2.74,2.74,0,0,0,.69-1.79,2.7,2.7,0,0,0-.79-1.67,8.11,8.11,0,0,0-2-1.55"/>
    <path class="graphics-fill-partial" id="O-2" data-name="O" d="M216.94,63.65c-.71-.41-1.1-.84-1.15-1.28s.43-1,1.44-1.55l7.46-4.34a5.07,5.07,0,0,1,2.67-.84,4.73,4.73,0,0,1,2.22.67c.71.41,1.1.84,1.15,1.28s-.43,1-1.44,1.55l-7.46,4.33a5.12,5.12,0,0,1-2.67.84,4.83,4.83,0,0,1-2.22-.66m15.73-9.14A12.52,12.52,0,0,0,230,53.34a10.76,10.76,0,0,0-2.89-.45,11.33,11.33,0,0,0-3.09.41,13.21,13.21,0,0,0-3.3,1.41l-6.55,3.81a8.67,8.67,0,0,0-2.43,1.91,2.7,2.7,0,0,0-.69,1.8,2.67,2.67,0,0,0,.79,1.67,8.41,8.41,0,0,0,2,1.55,12.41,12.41,0,0,0,2.67,1.16,10.1,10.1,0,0,0,2.9.45,11.36,11.36,0,0,0,3.09-.4,14,14,0,0,0,3.3-1.42l6.54-3.8a8.75,8.75,0,0,0,2.44-1.92,2.4,2.4,0,0,0-.1-3.47,8.34,8.34,0,0,0-2-1.54"/>
    <polyline class="graphics-fill-working" id="L" points="244.63 61.7 241.1 59.67 222.78 70.31 231.98 75.62 235.07 73.82 229.4 70.55 244.63 61.7"/>
    <polyline class="graphics-fill-missing" id="K" points="264.44 73.14 260.59 70.92 248.45 72.67 248.4 72.64 255.96 68.25 252.44 66.21 234.12 76.86 237.65 78.89 243.25 75.64 246.71 75.22 242.7 81.81 246.66 84.1 252.31 74.69 264.44 73.14"/>
    <polyline class="graphics-fill-wanted" id="I" points="270.37 76.56 266.84 74.53 248.53 85.17 252.05 87.21 270.37 76.56"/>
    <polyline class="graphics-fill-foreground" id="T-2" data-name="T" points="284.41 84.67 272.67 77.89 269.57 79.69 273.68 82.06 258.46 90.91 261.98 92.95 277.21 84.1 281.32 86.47 284.41 84.67"/>
  </g>
  <path class="graphics-fill-foreground" id="Makerspace" d="M233.72,30.73,219.47,39l-2.35-1.36,11.21-6.51,0,0-14.13,4.83-2.07-1.19,8.29-8.2,0,0L209.14,33l-2.35-1.35L221,23.41l3.83,2.21L218,32.49l0,0,11.84-4,3.84,2.22m-3.29,8.35,2.72,1.57,4.44-4.13,0,0-7.12,2.58m12-3.32L231.64,46,229,44.52l2.3-2.15-3.79-2.18-3.78,1.29L221.12,40l17.8-6.23,3.51,2M256.71,44l-3-1.73-9.43,1.37,0,0,5.88-3.41-2.74-1.59-14.25,8.28,2.74,1.59,4.36-2.54,2.69-.32-3.12,5.13,3.08,1.77,4.4-7.31L256.71,44m9.22,5.33L258.42,45l-14.24,8.28,7.7,4.45,2.41-1.4-5-2.87,3.75-2.18,3.63,2.1,2.4-1.4-3.63-2.09L258.76,48l4.77,2.75,2.4-1.39m-1,6.58,1.4.81a4,4,0,0,0,1.9.56,3.81,3.81,0,0,0,2-.58c.7-.41,1-.8,1-1.18s-.35-.74-1-1.1l-1.41-.81-4,2.3M272.32,53c1.66,1,2.52,1.88,2.56,2.77s-.59,1.73-1.95,2.52a8.14,8.14,0,0,1-2.78,1,7.21,7.21,0,0,1-3-.16l-3.66,5.25-2.94-1.7L264,58l-1.31-.75-5.8,3.37L254.11,59l14.24-8.28,4,2.3m11.39,6.34a8.57,8.57,0,0,0-4.29-1.24,7.73,7.73,0,0,0-4,1.07,2.59,2.59,0,0,0-1.24,1.25,2.51,2.51,0,0,0-.08,1.36,4.94,4.94,0,0,0,.54,1.38,12.39,12.39,0,0,1,.65,1.33,2.63,2.63,0,0,1,.24,1.18,1.18,1.18,0,0,1-.7.93,3.23,3.23,0,0,1-1.74.44,3.36,3.36,0,0,1-1.64-.43,1.77,1.77,0,0,1-.51-.43,1.06,1.06,0,0,1-.24-.59,1.32,1.32,0,0,1,.2-.72,2.92,2.92,0,0,1,.75-.84l-3.28-1.22c-1,1-1.46,2-1.28,2.8a3.69,3.69,0,0,0,2,2.23,9.48,9.48,0,0,0,2.21.94,8.94,8.94,0,0,0,2.25.36,8.33,8.33,0,0,0,2.18-.23,7,7,0,0,0,2-.8,3.26,3.26,0,0,0,1.43-1.36,2.64,2.64,0,0,0,.24-1.44,4.37,4.37,0,0,0-.48-1.44c-.25-.47-.46-.9-.67-1.31a3.39,3.39,0,0,1-.35-1.1.8.8,0,0,1,.48-.81,3.07,3.07,0,0,1,1.53-.44,2.86,2.86,0,0,1,1.54.4c.48.28.73.6.73.95a2,2,0,0,1-.64,1.32l3.18,1a3.65,3.65,0,0,0,.83-1.12,2,2,0,0,0,.17-1.17,2.38,2.38,0,0,0-.57-1.16,5.15,5.15,0,0,0-1.39-1.1m3.36,9.44,1.47.85a3.78,3.78,0,0,0,4,0c1.34-.78,1.34-1.56,0-2.35l-1.46-.84-4,2.34m7.48-3c1.7,1,2.59,1.92,2.67,2.83s-.55,1.76-1.9,2.55a8,8,0,0,1-4.39,1.11,10.44,10.44,0,0,1-4.9-1.53l-1.21-.7-5.73,3.32-2.73-1.58,14.24-8.28,3.95,2.28m.3,10.42,2.72,1.57L302,73.72l-.05,0-7.11,2.58m12-3.32L296.06,83.23l-2.63-1.52,2.31-2.15L292,77.38l-3.78,1.29-2.64-1.52,17.8-6.23,3.52,2m9.43,5.22a9.87,9.87,0,0,0-2.08-.91,8.13,8.13,0,0,0-2.25-.35,8.86,8.86,0,0,0-2.4.32,10.58,10.58,0,0,0-2.57,1.1l-5.09,3A6.7,6.7,0,0,0,300,82.78a2.1,2.1,0,0,0-.54,1.39,2,2,0,0,0,.61,1.3,6.47,6.47,0,0,0,1.57,1.21,10.25,10.25,0,0,0,2.09.91,8.38,8.38,0,0,0,2.24.35,9.35,9.35,0,0,0,2.41-.32,11,11,0,0,0,2.57-1.1l.59-.35-2.75-1.58-.94.55a3.9,3.9,0,0,1-2.07.65,3.72,3.72,0,0,1-1.74-.51c-.55-.32-.85-.65-.89-1s.33-.75,1.12-1.21l5.8-3.37a4,4,0,0,1,2.08-.65,3.68,3.68,0,0,1,1.73.51c.55.33.85.66.89,1s-.33.74-1.12,1.2l-.4.23L316,83.58l0,0a6.7,6.7,0,0,0,1.89-1.49,2.2,2.2,0,0,0,.54-1.4,2.14,2.14,0,0,0-.61-1.3,6.73,6.73,0,0,0-1.58-1.2m14.07,8.35-7.51-4.34-14.25,8.28,7.71,4.45,2.41-1.4-5-2.87,3.75-2.18,3.64,2.1,2.4-1.39-3.64-2.1,3.28-1.91,4.77,2.75,2.41-1.39"/>
  <path class="graphics-fill-foreground" id="Victoria" d="M250.13,17.34l-17.91,6.17-3.11-1.8,10.57-10.4,2.7,1.56-7.65,7.37,0,0,12.69-4.47,2.68,1.55m4.43,2.56-2.75-1.59-14.24,8.28,2.74,1.59,14.25-8.28m7.1,3.87a9.62,9.62,0,0,0-2.08-.9,8,8,0,0,0-2.24-.35,9,9,0,0,0-2.41.31,10.92,10.92,0,0,0-2.56,1.1l-5.1,3a6.85,6.85,0,0,0-1.89,1.5,1.88,1.88,0,0,0,.07,2.69,6.87,6.87,0,0,0,1.57,1.2,9.67,9.67,0,0,0,2.09.91,8.08,8.08,0,0,0,2.26.35,9.23,9.23,0,0,0,2.39-.31,10.46,10.46,0,0,0,2.57-1.11l.59-.34-2.74-1.58-1,.54a3.9,3.9,0,0,1-2.07.66,3.69,3.69,0,0,1-1.73-.52c-.55-.32-.85-.65-.89-1s.32-.75,1.12-1.21l5.8-3.37a3.88,3.88,0,0,1,2.08-.65,3.68,3.68,0,0,1,1.72.51c.56.32.86.66.9,1s-.34.74-1.12,1.2l-.4.23,2.74,1.59.05,0a6.85,6.85,0,0,0,1.89-1.49,2.09,2.09,0,0,0,.53-1.39,2,2,0,0,0-.61-1.3,6.8,6.8,0,0,0-1.58-1.21m14.87,8.81-9.14-5.27L265,28.7l3.2,1.85-11.84,6.88L259.08,39l11.85-6.89,3.2,1.85,2.4-1.4M270.41,43a3.69,3.69,0,0,0,1.73.52,3.88,3.88,0,0,0,2.07-.65L280,39.48c.78-.45,1.16-.85,1.12-1.2s-.34-.68-.9-1a3.85,3.85,0,0,0-1.73-.52,4.09,4.09,0,0,0-2.07.66l-5.8,3.37c-.8.46-1.17.87-1.13,1.21s.35.67.9,1m12.23-7.1a6.73,6.73,0,0,1,1.58,1.2,1.86,1.86,0,0,1,.07,2.69,6.7,6.7,0,0,1-1.89,1.49l-5.09,3a10.58,10.58,0,0,1-2.57,1.1,8.53,8.53,0,0,1-2.4.32,8.14,8.14,0,0,1-2.26-.35,10.1,10.1,0,0,1-2.08-.91,6.65,6.65,0,0,1-1.57-1.2,2,2,0,0,1-.6-1.3,2.11,2.11,0,0,1,.52-1.4,6.92,6.92,0,0,1,1.9-1.49l5.09-3a10.58,10.58,0,0,1,2.57-1.1,9.33,9.33,0,0,1,2.41-.31,8.06,8.06,0,0,1,2.24.35,9.38,9.38,0,0,1,2.08.91m3.1,9.19,1.42.82a4,4,0,0,0,1.89.55,3.78,3.78,0,0,0,2-.58c.69-.4,1-.79,1-1.17s-.36-.75-1-1.1l-1.41-.81-4,2.29m7.43-2.89c1.66,1,2.52,1.88,2.56,2.77s-.6,1.73-2,2.52a8.24,8.24,0,0,1-2.77,1,7,7,0,0,1-3-.16l-3.65,5.25-2.94-1.7,3.42-4.75-1.31-.75-5.81,3.37L275,48.18,289.2,39.9l4,2.29m10,5.76-2.74-1.58-14.25,8.28,2.74,1.58L303.14,48m-3.27,8.35,2.72,1.57L307,53.75l0,0-7.11,2.57m12-3.32L301.08,63.26l-2.63-1.51,2.31-2.15L297,57.41l-3.78,1.29-2.63-1.52L308.35,51l3.51,2"/>
  <g id="Locked_Toolkit" data-name="Locked Toolkit">
    <g id="Box_Top" data-name="Box Top">
      <polygon points="113.13 10.61 99.93 2.99 43.83 35.38 33.93 41.09 33.93 52.52 66.93 71.58 123.03 39.19 123.03 27.76 113.13 10.61" style="fill: #ed1c24;stroke: #fff;stroke-miterlimit: 10;stroke-width: 0.66px"/>
      <line x1="123.03" y1="27.76" x2="66.93" y2="60.14" style="fill: none;stroke: #fff;stroke-miterlimit: 10;stroke-width: 0.33px"/>
      <line x1="57.03" y1="43" x2="113.13" y2="10.61" style="fill: none;stroke: #fff;stroke-miterlimit: 10;stroke-width: 0.33px"/>
      <polyline points="43.83 35.38 57.03 43 66.93 60.15 66.93 71.58" style="fill: none;stroke: #fff;stroke-miterlimit: 10;stroke-width: 0.33px"/>
    </g>
    <g id="Box_Bottom" data-name="Box Bottom">
      <polygon points="66.93 71.58 33.93 52.52 33.93 79.2 66.93 98.25 123.03 65.86 123.03 39.19 66.93 71.58" style="fill: #ed1c24;stroke: #fff;stroke-miterlimit: 10;stroke-width: 0.66px"/>
      <line x1="66.93" y1="71.58" x2="66.93" y2="98.25" style="fill: none;stroke: #fff;stroke-miterlimit: 10;stroke-width: 0.33px"/>
    </g>
    <g id="Logo">
      <g style="isolation: isolate">
        <g style="clip-path: url(#clip-path)">
          <g style="clip-path: url(#clip-path-2)">
            <path d="M46.91,78.07c-.27-.15-.5-.38-.5-.52s.24-.08.5.07l4.87,2.81c.27.16.51.39.51.52s-.24.09-.51-.07l-4.87-2.81m0-1.93c-.27-.15-.51-.38-.51-.52s.24-.08.51.07l4.86,2.81c.28.16.51.39.51.52s-.23.09-.51-.07l-4.86-2.81m5.85,1.22-6.89-4c-.47-.27-.86,0-.86.5a1.85,1.85,0,0,0,.61,1.29c-.35-.1-.62.14-.62.59a1.87,1.87,0,0,0,.62,1.3c-.35-.06-.62.13-.62.59a1.87,1.87,0,0,0,.85,1.47l6.89,4c.47.27.86.05.86-.49a1.84,1.84,0,0,0-.63-1.3c.36.11.63-.14.63-.58A1.91,1.91,0,0,0,53,79.42c.35.07.63-.13.63-.58a1.94,1.94,0,0,0-.85-1.48" style="fill: #fff"/>
            <path d="M52.22,83.18l-5.77-3.33a7.61,7.61,0,0,0,2.88,3.32,2.4,2.4,0,0,0,2.89,0" style="fill: #fff"/>
            <path d="M56.7,67.64l-1.29-.74a5.64,5.64,0,0,0-.28.55,17.08,17.08,0,0,0-1.77,6.66c0,1.91-.51,1.64-1,1.35l-6-3.47c-.46-.26-1-.56-1-2.51a34.58,34.58,0,0,0-1.72-8.68c-.09-.3-.18-.58-.27-.86l-1.27-.73c.17.48.34,1,.48,1.47a33,33,0,0,1,1.65,8.19c.08,2.2.74,3.57,2.14,4.38l6,3.46c1.39.81,2.06.24,2.18-1.88a16,16,0,0,1,1.69-6.26,10.11,10.11,0,0,1,.48-.93M49.86,44.4l-.39-.23-.08,0-.35-.2c-5.87-3.15-8.83.55-9.3,4.63V51a17.8,17.8,0,0,0,.66,3.31l1.2.69a15.05,15.05,0,0,1-.83-4.68c0-3.68,2.28-8.31,8.32-5.09l.31.18.08,0,.31.18c6,3.75,8.28,11,8.27,14.65A7.6,7.6,0,0,1,57.19,64l1.23.71A9,9,0,0,0,59.17,61c0-4.48-2.89-12.58-9.31-16.56" style="fill: #f0d103"/>
            <path d="M47.45,55.37a4.25,4.25,0,0,1-.64-.46,6,6,0,0,1-2.13-5.22c.3-1.37,1.49-1.69,2.81-.94a6.19,6.19,0,0,1,.65.47c1.56,1.35,2.5,3.63,2.14,5.23-.34,1.35-1.54,1.67-2.83.92m.59-8-.4.72-.35-.2-.42-1.15a2.73,2.73,0,0,0-1-.25v1c-.12,0-.2,0-.31,0l-.74-1a1.93,1.93,0,0,0-.74.38l.42,1.19c0,.06-.11.12-.15.18l-.9-.65a4.44,4.44,0,0,0-.31.85v.09l.78,1a.51.51,0,0,1,0,.25L43,49.69a7.75,7.75,0,0,0,.15,1.3l.89.6c0,.11,0,.16.09.27l-.59.42a9.59,9.59,0,0,0,.62,1.36l.86.09a1,1,0,0,0,.15.22L45,54.8A14.92,14.92,0,0,0,46,56l.58-.48.08.1.08,0,.19,1.14a4.51,4.51,0,0,0,.54.35,5.89,5.89,0,0,0,.55.29l.19-.93c.09,0,.12,0,.2.07l.58,1.14a1.65,1.65,0,0,0,.94,0l-.23-1.13s.11,0,.16-.08l.85.85a1.36,1.36,0,0,0,.66-.57l-.62-1.12a.39.39,0,0,0,.08-.22l.93.4,0-.07c0-.33.09-.67.13-1L51,53.84a1.33,1.33,0,0,0,0-.38l.74-.15A6.87,6.87,0,0,0,51.37,52l-.85-.31c-.08-.14-.12-.29-.19-.42l.43-.7c-.24-.4-.47-.81-.74-1.19l-.74.16A2.33,2.33,0,0,0,49,49.2v-1c-.16-.14-.31-.32-.47-.46a2.8,2.8,0,0,0-.46-.35" style="fill: #fff"/>
            <path d="M52.57,57.85l-.27.47-.24-.14-.27-.78a3.32,3.32,0,0,0-.66-.2v.71l-.2,0-.51-.69a.85.85,0,0,0-.5.25l.3.8-.11.12L49.53,58a5.35,5.35,0,0,0-.24.58v0l.5.7v.18l-.5,0,1,.6a2.36,2.36,0,0,1,.05-.6c.2-.92,1-1.14,1.89-.62a3,3,0,0,1,.45.31,4.17,4.17,0,0,1,1.49,3.15l1,.58v-.05l-.58-.56a.59.59,0,0,0,0-.25l.51-.11a4.07,4.07,0,0,0-.23-.86l-.59-.24c0-.12-.08-.18-.11-.29l.27-.48a7.94,7.94,0,0,0-.5-.78l-.51.11-.23-.26v-.72a1.45,1.45,0,0,0-.31-.27,3.15,3.15,0,0,1-.31-.27" style="fill: #fff"/>
            <path d="M54.09,58a2.43,2.43,0,0,1-.28-.2,2.83,2.83,0,0,1-1-2.47c.14-.66.7-.8,1.33-.44a2.73,2.73,0,0,1,.3.21,2.82,2.82,0,0,1,1,2.47c-.16.64-.74.78-1.35.43m.27-3.79-.19.33L54,54.44l-.19-.56-.47-.13v.49s-.08,0-.16,0l-.35-.47a.91.91,0,0,0-.35.16l.19.56-.07.08-.43-.29a1,1,0,0,0-.16.4v0l.35.47v.14L52,55.29a2.86,2.86,0,0,0,.08.63l.43.3,0,.11-.27.2a4.6,4.6,0,0,0,.31.63l.39,0,.08.09-.08.45c.15.18.27.33.46.54l.28-.2,0,0,0,0,.11.56a1.44,1.44,0,0,0,.25.18,1.28,1.28,0,0,0,.25.11l.09-.44h.08l.26.51h.48l-.12-.48.08,0,.38.41c.12-.06.2-.2.28-.29l-.28-.52,0-.11.43.16a4.43,4.43,0,0,0,.08-.49l-.39-.41v-.18l.35-.07c0-.15-.12-.38-.2-.6l-.39-.14-.07-.18.2-.33c-.13-.21-.24-.41-.35-.56l-.36.07-.16-.19V54.6c-.08-.09-.16-.13-.23-.22s-.16-.14-.24-.18" style="fill: #fff"/>
            <path d="M47.88,57.61l-.11.24-.12-.07-.15-.4a.92.92,0,0,0-.32-.09v.36l-.11,0-.23-.32-.24.14.15.4a.12.12,0,0,0-.11,0l-.32-.23,0,.12.61.35a.62.62,0,0,1,.8,0,1.25,1.25,0,0,1,.24.18,2.17,2.17,0,0,1,.57.79l.59.34c0-.09,0-.16-.07-.23L48.7,59l-.08-.13.16-.23c-.08-.13-.16-.26-.23-.4l-.24.09-.11-.11v-.36L48,57.74l-.16-.13" style="fill: #fff"/>
          </g>
        </g>
      </g>
    </g>
    <g id="Clasp_Panel" data-name="Clasp Panel">
      <polygon points="98.9 65.05 91.71 69.21 91.71 52.59 98.9 48.44 98.9 65.05" style="fill: #ed1c24;stroke: #fff;stroke-miterlimit: 10;stroke-width: 0.33px"/>
      <line x1="91.68" y1="57.29" x2="98.9" y2="53.11" style="fill: none;stroke: #fff;stroke-miterlimit: 10;stroke-width: 0.66px"/>
    </g>
    <g id="Clasp">
      <g>
        <polygon points="92.91 54.67 97.7 51.9 100.1 53.28 98.9 62.28 100.1 65.64 95.31 68.51 92.91 64.36 92.91 54.67" style="fill: #333;stroke: #fff;stroke-miterlimit: 10;stroke-width: 0.66px"/>
        <polygon points="100.1 53.28 98.9 62.28 100.1 65.64 95.31 68.51 94.11 65.05 95.31 56.05 100.1 53.28" style="fill: none;stroke: #fff;stroke-miterlimit: 10;stroke-width: 0.33px"/>
      </g>
      <polygon points="97.7 58.82 96.51 59.51 96.5 59.6 97.52 60.18 97.7 58.82" style="fill: #fff;stroke: #fff;stroke-miterlimit: 10;stroke-width: 0.33px"/>
      <polygon points="96.3 65.17 96.99 64.77 95.94 64.17 96.3 65.17" style="fill: #fff;stroke: #fff;stroke-miterlimit: 10;stroke-width: 0.33px"/>
      <path d="M96.61,62.11a2.38,2.38,0,0,0,.58,1.45l-.09-.25.27-2C96.93,61.26,96.61,61.55,96.61,62.11Z" style="fill: #fff;stroke: #fff;stroke-miterlimit: 10;stroke-width: 0.33px"/>
    </g>
    <g id="Lock_Body" data-name="Lock Body">
      <polygon points="95.14 83.98 91.07 81.63 91.07 71.68 101.25 65.8 105.32 68.15 105.32 78.11 95.14 83.98" style="fill: #fbb03b;stroke: #fff;stroke-miterlimit: 10;stroke-width: 0.66px"/>
      <polyline points="91.07 71.68 95.14 74.03 105.32 68.15" style="fill: none;stroke: #fff;stroke-miterlimit: 10;stroke-width: 0.33px"/>
      <line x1="95.14" y1="74.03" x2="95.14" y2="83.98" style="fill: none;stroke: #fff;stroke-miterlimit: 10;stroke-width: 0.33px"/>
      <g>
        <g style="isolation: isolate">
          <path d="M100.22,73.86a3,3,0,0,0-1.35,2.33c0,.6.3,1,.73,1v1.2c0,.4.29.56.64.36a1.41,1.41,0,0,0,.63-1.09v-1.2a3,3,0,0,0,.72-1.79c0-.86-.61-1.2-1.36-.77" style="fill: #fbb03b;stroke: #fff;stroke-miterlimit: 10;stroke-width: 0.33px"/>
        </g>
        <line x1="100.86" y1="76.42" x2="99.03" y2="75.36" style="fill: #fff;stroke: #fff;stroke-miterlimit: 10;stroke-width: 0.33px"/>
        <line x1="99.6" y1="77.15" x2="99.03" y2="76.83" style="fill: #fff;stroke: #fff;stroke-miterlimit: 10;stroke-width: 0.33px"/>
      </g>
    </g>
    <g id="Lock_U" data-name="Lock U">
      <path d="M97.37,61.35c-.44-.09-.76.2-.76.76a1.91,1.91,0,0,0,.11.6,5,5,0,0,1,1-.71,4,4,0,0,1,.41-.21,1.79,1.79,0,0,0-.38-.31A1.12,1.12,0,0,0,97.37,61.35Z" style="fill: none"/>
      <path d="M98.16,64.14a.56.56,0,0,0,.57-.4l0,0A3.78,3.78,0,0,0,98.16,64.14Z" style="fill: none"/>
      <path d="M102.25,64.62a3.12,3.12,0,0,0-1.4-2.84A2.73,2.73,0,0,0,99,61.51a4.85,4.85,0,0,1,.83,2l0,0a1.25,1.25,0,0,1,.38,1.07s0,3.52,0,3.54c0,.32.45.58,1,.58s1-.26,1-.58C102.26,68.14,102.25,64.62,102.25,64.62Z" style="fill: gray;stroke: #fff;stroke-miterlimit: 10;stroke-width: 0.66px"/>
      <path d="M98.09,61.79a4,4,0,0,0-.41.21,5,5,0,0,0-1,.71,6.39,6.39,0,0,0-.73.74,7.6,7.6,0,0,0-1.85,4.68v3.54c0,.33.44.59,1,.59s1-.26,1-.59V68.13A5.52,5.52,0,0,1,97.36,65a5.93,5.93,0,0,1,.8-.85,3.78,3.78,0,0,1,.54-.38l0,0a1,1,0,0,0,.07-.37A2.42,2.42,0,0,0,98.09,61.79Z" style="fill: gray;stroke: #fff;stroke-miterlimit: 10;stroke-width: 0.66px"/>
    </g>
    <path id="Loop" d="M99.8,63.53a4.85,4.85,0,0,0-.83-2,4.17,4.17,0,0,0-1.26-1.22l-.19-.11-1-.58L96,63.45a6.39,6.39,0,0,1,.73-.74,1.91,1.91,0,0,1-.11-.6c0-.56.32-.85.76-.76a1.12,1.12,0,0,1,.34.13,1.79,1.79,0,0,1,.38.31,2.42,2.42,0,0,1,.71,1.58,1,1,0,0,1-.07.37.56.56,0,0,1-.57.4,5.93,5.93,0,0,0-.8.85l.34.19c1.17.67,2.13.13,2.13-1.22A3.22,3.22,0,0,0,99.8,63.53Z" style="fill: #ed1c24;stroke: #fff;stroke-miterlimit: 10;stroke-width: 0.33px"/>
    <g id="Handle">
      <polygon points="71.88 28.71 68.58 30.61 65.28 28.61 65.28 20.99 68.58 15.28 85.08 5.75 91.68 9.66 91.68 17.28 88.37 19.18 85.08 17.28 85.08 13.47 73.53 20.14 71.88 22.99 71.88 28.71" style="fill: #333;stroke: #fff;stroke-miterlimit: 10;stroke-width: 0.66px"/>
      <polyline points="85.08 13.47 86.73 12.51 88.38 13.47 88.37 19.18" style="fill: none;stroke: #fff;stroke-miterlimit: 10;stroke-width: 0.33px"/>
      <polyline points="68.58 30.61 68.58 22.99 71.88 17.28 88.38 7.75" style="fill: none;stroke: #fff;stroke-miterlimit: 10;stroke-width: 0.33px"/>
      <line x1="71.88" y1="17.28" x2="68.58" y2="15.28" style="fill: none;stroke: #fff;stroke-miterlimit: 10;stroke-width: 0.33px"/>
      <line x1="68.58" y1="22.99" x2="65.28" y2="20.99" style="fill: none;stroke: #fff;stroke-miterlimit: 10;stroke-width: 0.33px"/>
    </g>
  </g>
</svg>
