<svg id="Layer_1" data-name="Layer 1" xmlns="http://www.w3.org/2000/svg" xmlns:xlink="http://www.w3.org/1999/xlink" viewBox="0 0 332 100">
  <defs>
    <clipPath id="clip-path">
      <polygon points="39.65 77.8 39.77 38.15 59.22 49.38 59.11 89.03 39.65 77.8" style="fill: none"/>
    </clipPath>
    <clipPath id="clip-path-2">
      <path d="M59.11,89,39.65,77.8l.12-39.65L59.22,49.38,59.11,89m-.17-24L39.72,53.94v3.9L58.93,68.93V65" style="fill: none"/>
    </clipPath>
    <clipPath id="clip-path-3">
      <polygon points="42.1 79 42.16 59.25 56.77 67.68 56.71 87.43 42.1 79" style="fill: none"/>
    </clipPath>
    <clipPath id="clip-path-4">
      <polygon points="7.54 54.25 7.58 38.88 27.08 50.14 27.04 65.51 7.54 54.25" style="fill: none"/>
    </clipPath>
  </defs>
  <line id="Line" x1="81.93" y1="97" x2="240.67" y2="5.69" style="fill: none;stroke: #999;stroke-miterlimit: 10"/>
  <g id="Toolkit">
    <polyline class="graphics-fill-foreground" id="T" points="210.61 42.06 198.86 35.28 195.76 37.08 199.88 39.45 184.65 48.3 188.18 50.33 203.4 41.49 207.51 43.86 210.61 42.06"/>
    <path class="graphics-fill-broken" id="O" d="M202.74,55.45c-.71-.41-1.1-.84-1.15-1.28s.43-1,1.44-1.55l7.46-4.34a5.09,5.09,0,0,1,2.67-.84,4.73,4.73,0,0,1,2.22.67c.71.41,1.1.84,1.15,1.28s-.43,1-1.44,1.55l-7.46,4.33a5.12,5.12,0,0,1-2.67.84,4.83,4.83,0,0,1-2.22-.66m15.73-9.14a12.52,12.52,0,0,0-2.68-1.17,10.76,10.76,0,0,0-2.89-.45,11.33,11.33,0,0,0-3.09.41,13.21,13.21,0,0,0-3.3,1.41L200,50.32a8.5,8.5,0,0,0-2.43,1.92,2.39,2.39,0,0,0,.1,3.46,8.41,8.41,0,0,0,2,1.55,12.41,12.41,0,0,0,2.67,1.16,10.1,10.1,0,0,0,2.9.45,11.36,11.36,0,0,0,3.09-.4,14,14,0,0,0,3.3-1.42l6.54-3.8a8.75,8.75,0,0,0,2.44-1.92,2.74,2.74,0,0,0,.69-1.79,2.7,2.7,0,0,0-.79-1.67,8.11,8.11,0,0,0-2-1.55"/>
    <path class="graphics-fill-partial" id="O-2" data-name="O" d="M216.94,63.65c-.71-.41-1.1-.84-1.15-1.28s.43-1,1.44-1.55l7.46-4.34a5.07,5.07,0,0,1,2.67-.84,4.73,4.73,0,0,1,2.22.67c.71.41,1.1.84,1.15,1.28s-.43,1-1.44,1.55l-7.46,4.33a5.12,5.12,0,0,1-2.67.84,4.83,4.83,0,0,1-2.22-.66m15.73-9.14A12.52,12.52,0,0,0,230,53.34a10.76,10.76,0,0,0-2.89-.45,11.33,11.33,0,0,0-3.09.41,13.21,13.21,0,0,0-3.3,1.41l-6.55,3.81a8.67,8.67,0,0,0-2.43,1.91,2.7,2.7,0,0,0-.69,1.8,2.67,2.67,0,0,0,.79,1.67,8.41,8.41,0,0,0,2,1.55,12.41,12.41,0,0,0,2.67,1.16,10.1,10.1,0,0,0,2.9.45,11.36,11.36,0,0,0,3.09-.4,14,14,0,0,0,3.3-1.42l6.54-3.8a8.75,8.75,0,0,0,2.44-1.92,2.4,2.4,0,0,0-.1-3.47,8.34,8.34,0,0,0-2-1.54"/>
    <polyline class="graphics-fill-working" id="L" points="244.63 61.7 241.1 59.67 222.78 70.31 231.98 75.62 235.07 73.82 229.4 70.55 244.63 61.7"/>
    <polyline class="graphics-fill-missing" id="K" points="264.44 73.14 260.59 70.92 248.45 72.67 248.4 72.64 255.96 68.25 252.44 66.21 234.12 76.86 237.65 78.89 243.25 75.64 246.71 75.22 242.7 81.81 246.66 84.1 252.31 74.69 264.44 73.14"/>
    <polyline class="graphics-fill-wanted" id="I" points="270.37 76.56 266.84 74.53 248.53 85.17 252.05 87.21 270.37 76.56"/>
    <polyline class="graphics-fill-foreground" id="T-2" data-name="T" points="284.41 84.67 272.67 77.89 269.57 79.69 273.68 82.06 258.46 90.91 261.98 92.95 277.21 84.1 281.32 86.47 284.41 84.67"/>
  </g>
  <path class="graphics-fill-foreground" id="Makerspace" d="M233.72,30.73,219.47,39l-2.35-1.36,11.21-6.51,0,0-14.13,4.83-2.07-1.19,8.29-8.2,0,0L209.14,33l-2.35-1.35L221,23.41l3.83,2.21L218,32.49l0,0,11.84-4,3.84,2.22m-3.29,8.35,2.72,1.57,4.44-4.13,0,0-7.12,2.58m12-3.32L231.64,46,229,44.52l2.3-2.15-3.79-2.18-3.78,1.29L221.12,40l17.8-6.23,3.51,2M256.71,44l-3-1.73-9.43,1.37,0,0,5.88-3.41-2.74-1.59-14.25,8.28,2.74,1.59,4.36-2.54,2.69-.32-3.12,5.13,3.08,1.77,4.4-7.31L256.71,44m9.22,5.33L258.42,45l-14.24,8.28,7.7,4.45,2.41-1.4-5-2.87,3.75-2.18,3.63,2.1,2.4-1.4-3.63-2.09L258.76,48l4.77,2.75,2.4-1.39m-1,6.58,1.4.81a4,4,0,0,0,1.9.56,3.81,3.81,0,0,0,2-.58c.7-.41,1-.8,1-1.18s-.35-.74-1-1.1l-1.41-.81-4,2.3M272.32,53c1.66,1,2.52,1.88,2.56,2.77s-.59,1.73-1.95,2.52a8.14,8.14,0,0,1-2.78,1,7.21,7.21,0,0,1-3-.16l-3.66,5.25-2.94-1.7L264,58l-1.31-.75-5.8,3.37L254.11,59l14.24-8.28,4,2.3m11.39,6.34a8.57,8.57,0,0,0-4.29-1.24,7.73,7.73,0,0,0-4,1.07,2.59,2.59,0,0,0-1.24,1.25,2.51,2.51,0,0,0-.08,1.36,4.94,4.94,0,0,0,.54,1.38,12.39,12.39,0,0,1,.65,1.33,2.63,2.63,0,0,1,.24,1.18,1.18,1.18,0,0,1-.7.93,3.23,3.23,0,0,1-1.74.44,3.36,3.36,0,0,1-1.64-.43,1.77,1.77,0,0,1-.51-.43,1.06,1.06,0,0,1-.24-.59,1.32,1.32,0,0,1,.2-.72,2.92,2.92,0,0,1,.75-.84l-3.28-1.22c-1,1-1.46,2-1.28,2.8a3.69,3.69,0,0,0,2,2.23,9.48,9.48,0,0,0,2.21.94,8.94,8.94,0,0,0,2.25.36,8.33,8.33,0,0,0,2.18-.23,7,7,0,0,0,2-.8,3.26,3.26,0,0,0,1.43-1.36,2.64,2.64,0,0,0,.24-1.44,4.37,4.37,0,0,0-.48-1.44c-.25-.47-.46-.9-.67-1.31a3.39,3.39,0,0,1-.35-1.1.8.8,0,0,1,.48-.81,3.07,3.07,0,0,1,1.53-.44,2.86,2.86,0,0,1,1.54.4c.48.28.73.6.73.95a2,2,0,0,1-.64,1.32l3.18,1a3.65,3.65,0,0,0,.83-1.12,2,2,0,0,0,.17-1.17,2.38,2.38,0,0,0-.57-1.16,5.15,5.15,0,0,0-1.39-1.1m3.36,9.44,1.47.85a3.78,3.78,0,0,0,4,0c1.34-.78,1.34-1.56,0-2.35l-1.46-.84-4,2.34m7.48-3c1.7,1,2.59,1.92,2.67,2.83s-.55,1.76-1.9,2.55a8,8,0,0,1-4.39,1.11,10.44,10.44,0,0,1-4.9-1.53l-1.21-.7-5.73,3.32-2.73-1.58,14.24-8.28,3.95,2.28m.3,10.42,2.72,1.57L302,73.72l-.05,0-7.11,2.58m12-3.32L296.06,83.23l-2.63-1.52,2.31-2.15L292,77.38l-3.78,1.29-2.64-1.52,17.8-6.23,3.52,2m9.43,5.22a9.87,9.87,0,0,0-2.08-.91,8.13,8.13,0,0,0-2.25-.35,8.86,8.86,0,0,0-2.4.32,10.58,10.58,0,0,0-2.57,1.1l-5.09,3A6.7,6.7,0,0,0,300,82.78a2.1,2.1,0,0,0-.54,1.39,2,2,0,0,0,.61,1.3,6.47,6.47,0,0,0,1.57,1.21,10.25,10.25,0,0,0,2.09.91,8.38,8.38,0,0,0,2.24.35,9.35,9.35,0,0,0,2.41-.32,11,11,0,0,0,2.57-1.1l.59-.35-2.75-1.58-.94.55a3.9,3.9,0,0,1-2.07.65,3.72,3.72,0,0,1-1.74-.51c-.55-.32-.85-.65-.89-1s.33-.75,1.12-1.21l5.8-3.37a4,4,0,0,1,2.08-.65,3.68,3.68,0,0,1,1.73.51c.55.33.85.66.89,1s-.33.74-1.12,1.2l-.4.23L316,83.58l0,0a6.7,6.7,0,0,0,1.89-1.49,2.2,2.2,0,0,0,.54-1.4,2.14,2.14,0,0,0-.61-1.3,6.73,6.73,0,0,0-1.58-1.2m14.07,8.35-7.51-4.34-14.25,8.28,7.71,4.45,2.41-1.4-5-2.87,3.75-2.18,3.64,2.1,2.4-1.39-3.64-2.1,3.28-1.91,4.77,2.75,2.41-1.39"/>
  <path class="graphics-fill-foreground" id="Victoria" d="M250.13,17.34l-17.91,6.17-3.11-1.8,10.57-10.4,2.7,1.56-7.65,7.37,0,0,12.69-4.47,2.68,1.55m4.43,2.56-2.75-1.59-14.24,8.28,2.74,1.59,14.25-8.28m7.1,3.87a9.62,9.62,0,0,0-2.08-.9,8,8,0,0,0-2.24-.35,9,9,0,0,0-2.41.31,10.92,10.92,0,0,0-2.56,1.1l-5.1,3a6.85,6.85,0,0,0-1.89,1.5,1.88,1.88,0,0,0,.07,2.69,6.87,6.87,0,0,0,1.57,1.2,9.67,9.67,0,0,0,2.09.91,8.08,8.08,0,0,0,2.26.35,9.23,9.23,0,0,0,2.39-.31,10.46,10.46,0,0,0,2.57-1.11l.59-.34-2.74-1.58-1,.54a3.9,3.9,0,0,1-2.07.66,3.69,3.69,0,0,1-1.73-.52c-.55-.32-.85-.65-.89-1s.32-.75,1.12-1.21l5.8-3.37a3.88,3.88,0,0,1,2.08-.65,3.68,3.68,0,0,1,1.72.51c.56.32.86.66.9,1s-.34.74-1.12,1.2l-.4.23,2.74,1.59.05,0a6.85,6.85,0,0,0,1.89-1.49,2.09,2.09,0,0,0,.53-1.39,2,2,0,0,0-.61-1.3,6.8,6.8,0,0,0-1.58-1.21m14.87,8.81-9.14-5.27L265,28.7l3.2,1.85-11.84,6.88L259.08,39l11.85-6.89,3.2,1.85,2.4-1.4M270.41,43a3.69,3.69,0,0,0,1.73.52,3.88,3.88,0,0,0,2.07-.65L280,39.48c.78-.45,1.16-.85,1.12-1.2s-.34-.68-.9-1a3.85,3.85,0,0,0-1.73-.52,4.09,4.09,0,0,0-2.07.66l-5.8,3.37c-.8.46-1.17.87-1.13,1.21s.35.67.9,1m12.23-7.1a6.73,6.73,0,0,1,1.58,1.2,1.86,1.86,0,0,1,.07,2.69,6.7,6.7,0,0,1-1.89,1.49l-5.09,3a10.58,10.58,0,0,1-2.57,1.1,8.53,8.53,0,0,1-2.4.32,8.14,8.14,0,0,1-2.26-.35,10.1,10.1,0,0,1-2.08-.91,6.65,6.65,0,0,1-1.57-1.2,2,2,0,0,1-.6-1.3,2.11,2.11,0,0,1,.52-1.4,6.92,6.92,0,0,1,1.9-1.49l5.09-3a10.58,10.58,0,0,1,2.57-1.1,9.33,9.33,0,0,1,2.41-.31,8.06,8.06,0,0,1,2.24.35,9.38,9.38,0,0,1,2.08.91m3.1,9.19,1.42.82a4,4,0,0,0,1.89.55,3.78,3.78,0,0,0,2-.58c.69-.4,1-.79,1-1.17s-.36-.75-1-1.1l-1.41-.81-4,2.29m7.43-2.89c1.66,1,2.52,1.88,2.56,2.77s-.6,1.73-2,2.52a8.24,8.24,0,0,1-2.77,1,7,7,0,0,1-3-.16l-3.65,5.25-2.94-1.7,3.42-4.75-1.31-.75-5.81,3.37L275,48.18,289.2,39.9l4,2.29m10,5.76-2.74-1.58-14.25,8.28,2.74,1.58L303.14,48m-3.27,8.35,2.72,1.57L307,53.75l0,0-7.11,2.57m12-3.32L301.08,63.26l-2.63-1.51,2.31-2.15L297,57.41l-3.78,1.29-2.63-1.52L308.35,51l3.51,2"/>
  <g id="Unlocked_Toolkit" data-name="Unlocked Toolkit">
    <polygon id="Box_Back" data-name="Box Back" points="123.03 65.86 90.03 46.81 33.93 79.2 33.93 52.53 90.03 20.14 123.03 39.19 123.03 65.86" style="fill: #ed1c24;stroke: #fff;stroke-miterlimit: 10;stroke-width: 0.66px"/>
    <g id="Tray">
      <g>
        <polygon points="113.81 43.33 89.23 29.14 43.15 55.74 67.72 69.93 113.81 43.33" style="fill: #fff;stroke: #fff;stroke-miterlimit: 10;stroke-width: 0.33px"/>
        <polygon points="67.72 77.03 67.72 69.93 119.95 39.78 119.95 46.88 67.72 77.03" style="fill: #fff;stroke: #fff;stroke-miterlimit: 10;stroke-width: 0.33px"/>
        <polygon points="37 52.2 67.72 69.93 67.72 77.03 37 59.29 37 52.2" style="fill: #fff;stroke: #fff;stroke-miterlimit: 10;stroke-width: 0.33px"/>
        <polygon points="89.23 29.14 89.23 22.04 37 52.2 43.15 55.74 89.23 29.14" style="fill: #fff;stroke: #fff;stroke-miterlimit: 10;stroke-width: 0.33px"/>
        <polygon points="119.95 39.78 89.23 22.04 89.23 29.14 113.81 43.33 119.95 39.78" style="fill: #fff;stroke: #fff;stroke-miterlimit: 10;stroke-width: 0.33px"/>
      </g>
      <g>
        <polygon points="49.29 59.29 49.29 48.65 101.52 18.49 107.66 22.04 107.66 39.78 101.52 36.23 101.52 25.59 55.43 52.21 55.43 62.84 49.29 59.29" style="fill: #fff;stroke: #fff;stroke-miterlimit: 10;stroke-width: 0.33px"/>
        <line x1="107.66" y1="22.04" x2="101.52" y2="25.59" style="fill: none;stroke: #fff;stroke-miterlimit: 10;stroke-width: 0.33px"/>
      </g>
      <g>
        <polygon points="37 59.29 37 52.2 89.23 22.04 101.52 29.14 101.52 18.49 107.66 22.04 107.66 32.68 119.95 39.78 119.95 46.88 67.72 77.03 37 59.29" style="fill: #ed1c24;stroke: #fff;stroke-miterlimit: 10;stroke-width: 0.66px"/>
        <polyline points="37 59.29 89.23 29.14 119.95 46.88" style="fill: none;stroke: #fff;stroke-miterlimit: 10;stroke-width: 0.33px"/>
        <line x1="107.66" y1="39.78" x2="107.66" y2="32.68" style="fill: none;stroke: #fff;stroke-miterlimit: 10;stroke-width: 0.33px"/>
        <line x1="101.52" y1="36.23" x2="101.52" y2="29.14" style="fill: none;stroke: #fff;stroke-miterlimit: 10;stroke-width: 0.33px"/>
        <line x1="89.23" y1="29.14" x2="89.23" y2="22.04" style="fill: #fff;stroke: #fff;stroke-miterlimit: 10;stroke-width: 0.33px"/>
      </g>
      <g>
        <polygon points="67.72 69.93 119.95 39.78 119.95 46.88 67.72 77.03 37 59.29 37 52.2 49.29 59.29 49.29 48.65 101.52 18.49 107.66 22.04 55.43 52.21 55.43 62.84 67.72 69.93" style="fill: #ed1c24;stroke: #fff;stroke-miterlimit: 10;stroke-width: 0.66px"/>
        <line x1="55.43" y1="52.21" x2="49.29" y2="48.65" style="fill: none;stroke: #fff;stroke-miterlimit: 10;stroke-width: 0.33px"/>
        <line x1="55.43" y1="62.84" x2="49.29" y2="59.29" style="fill: none;stroke: #fff;stroke-miterlimit: 10;stroke-width: 0.33px"/>
        <line x1="67.72" y1="77.03" x2="67.72" y2="69.93" style="fill: #fff;stroke: #fff;stroke-miterlimit: 10;stroke-width: 0.33px"/>
      </g>
    </g>
    <g id="Box_Front" data-name="Box Front">
      <polygon points="123.03 39.19 123.03 65.86 66.93 98.25 33.93 79.2 33.93 52.53 66.93 71.58 123.03 39.19" style="fill: #ed1c24;stroke: #fff;stroke-miterlimit: 10;stroke-width: 0.66px"/>
      <line x1="66.93" y1="71.58" x2="66.93" y2="98.25" style="fill: none;stroke: #fff;stroke-miterlimit: 10;stroke-width: 0.33px"/>
    </g>
    <g id="Latch_Panel" data-name="Latch Panel">
      <polygon points="98.9 65.05 91.71 69.21 91.71 57.27 98.9 53.12 98.9 65.05" style="fill: #ed1c24;stroke: #fff;stroke-miterlimit: 10;stroke-width: 0.33px"/>
    </g>
    <g id="Lid">
      <polygon points="0.93 33.47 33.93 52.53 33.93 63.96 24.03 69.67 10.83 62.05 0.93 44.91 0.93 33.47" style="fill: #ed1c24;stroke: #fff;stroke-miterlimit: 10;stroke-width: 0.66px"/>
      <polygon points="33.93 52.53 0.93 33.47 57.03 1.08 90.03 20.14 33.93 52.53" style="fill: #ed1c24;stroke: #fff;stroke-miterlimit: 10;stroke-width: 0.66px"/>
      <polyline points="70.23 31.57 66.93 29.66 57.03 12.51 57.03 1.08" style="fill: none;stroke: #fff;stroke-miterlimit: 10;stroke-width: 0.33px"/>
      <line x1="66.93" y1="29.66" x2="30.63" y2="50.62" style="fill: none;stroke: #fff;stroke-miterlimit: 10;stroke-width: 0.33px"/>
      <line x1="57.03" y1="12.51" x2="10.82" y2="39.19" style="fill: none;stroke: #fff;stroke-miterlimit: 10;stroke-width: 0.33px"/>
    </g>
    <g id="Logo-2" data-name="Logo">
      <g style="isolation: isolate">
        <g style="clip-path: url(#clip-path-3)">
          <g>
            <path d="M47,78.11c-.27-.15-.51-.38-.51-.51s.24-.09.51.07l4.86,2.81c.28.15.51.38.51.52s-.24.08-.51-.08L47,78.11m0-1.93c-.27-.15-.5-.37-.5-.51s.23-.09.5.07l4.87,2.81c.27.15.51.38.51.51s-.24.09-.51-.07L47,76.18m5.85,1.23-6.89-4c-.47-.27-.86-.05-.86.49a1.87,1.87,0,0,0,.62,1.3c-.35-.11-.62.14-.62.58a1.82,1.82,0,0,0,.61,1.3c-.35-.06-.62.14-.62.59a1.92,1.92,0,0,0,.85,1.48l6.89,4c.47.27.86,0,.86-.48a1.91,1.91,0,0,0-.62-1.31c.35.11.62-.13.63-.58a1.92,1.92,0,0,0-.63-1.31c.35.07.63-.13.63-.58a1.92,1.92,0,0,0-.85-1.47" style="fill: #fff"/>
            <path d="M52.29,83.22l-5.76-3.33a7.48,7.48,0,0,0,2.87,3.32,2.39,2.39,0,0,0,2.89,0" style="fill: #fff"/>
            <path d="M56.77,67.68l-1.29-.74c-.09.17-.18.36-.27.55a17,17,0,0,0-1.77,6.66c0,1.91-.51,1.64-1,1.35l-6-3.46c-.48-.28-1-.57-1-2.52a34.69,34.69,0,0,0-1.73-8.68c-.09-.3-.18-.58-.27-.86l-1.26-.73c.17.49.34,1,.47,1.47a32.72,32.72,0,0,1,1.66,8.19c.07,2.2.73,3.57,2.13,4.38l6,3.46c1.4.81,2.06.26,2.18-1.88a16,16,0,0,1,1.7-6.26,10.12,10.12,0,0,1,.47-.93" style="fill: #f0d103"/>
          </g>
        </g>
      </g>
      <g style="isolation: isolate">
        <g style="clip-path: url(#clip-path-4)">
          <g>
            <path d="M26.35,49.72l-1.2-.7A15.06,15.06,0,0,1,26,53.71c0,3.67-2.28,8.29-8.31,5.08l-.32-.18-.07,0L17,58.38c-6-3.75-8.27-11-8.26-14.65A7.67,7.67,0,0,1,9.55,40l-1.23-.71a8.84,8.84,0,0,0-.75,3.77c0,4.48,2.89,12.59,9.31,16.57l.39.22.08.05.35.2c6.42,3.44,9.36-1.3,9.37-5.78a16.07,16.07,0,0,0-.72-4.62" style="fill: #f0d103"/>
            <path d="M19.25,55.29a5,5,0,0,1-.65-.47,6,6,0,0,1-2.14-5.23c.34-1.35,1.54-1.66,2.83-.92a5.18,5.18,0,0,1,.65.46,6,6,0,0,1,2.12,5.23c-.3,1.36-1.49,1.69-2.81.93m.07-8.35a5.72,5.72,0,0,0-.55-.28l-.2.92c-.07,0-.11,0-.19-.07l-.58-1.14a1.64,1.64,0,0,0-.94,0l.24,1.12s-.13,0-.16.09l-.86-.86a1.4,1.4,0,0,0-.66.57L16,48.45a.42.42,0,0,0-.08.22l-.93-.4,0,.07c-.05.33-.09.67-.12,1l.85.85a1.33,1.33,0,0,0,0,.38l-.74.16A9,9,0,0,0,15.36,52l.87.31c.07.14.11.29.19.43l-.43.7c.23.4.46.8.73,1.19l.75-.16a2.15,2.15,0,0,0,.31.35v1c.15.13.3.31.46.45a3.09,3.09,0,0,0,.47.36L19.1,56l.35.2.43,1.15a2.61,2.61,0,0,0,1,.24v-1c.11,0,.2,0,.31,0l.74,1a2.13,2.13,0,0,0,.75-.38L22.22,56c0-.06.12-.11.15-.18l.9.66a4.54,4.54,0,0,0,.31-.86v-.08l-.77-1a.51.51,0,0,1,0-.25l.85.13a7.75,7.75,0,0,0-.15-1.3l-.89-.6a1.38,1.38,0,0,1-.08-.27l.59-.42a10.22,10.22,0,0,0-.63-1.35l-.85-.09a.93.93,0,0,0-.16-.22l.24-.86c-.31-.4-.62-.76-1-1.14l-.59.47-.08-.09-.08,0-.18-1.14-.55-.35" style="fill: #fff"/>
            <path d="M17.46,44.58,16.41,44a2.32,2.32,0,0,1-.05.6c-.2.93-1,1.14-1.89.63a3.12,3.12,0,0,1-.45-.32,4.21,4.21,0,0,1-1.49-3.15l-1-.57v0l.58.56a.61.61,0,0,0,0,.25l-.51.1a3.78,3.78,0,0,0,.23.86l.59.24c0,.12.08.19.12.3l-.28.47a6.44,6.44,0,0,0,.5.78l.51-.11.23.27v.72a2.38,2.38,0,0,0,.31.27c.12.11.23.17.32.26l.27-.46.23.13.28.78a4.09,4.09,0,0,0,.65.21v-.72l.19,0,.51.7a.84.84,0,0,0,.5-.26l-.3-.8.11-.11.59.43c.07-.19.16-.36.23-.59v0l-.5-.69v-.19l.51,0" style="fill: #fff"/>
            <path d="M12.61,49.16a2.68,2.68,0,0,1-1.31-2.68c.17-.64.74-.77,1.35-.42a2.17,2.17,0,0,1,.29.2,2.85,2.85,0,0,1,1,2.47c-.14.65-.71.8-1.34.43m0-4a1.28,1.28,0,0,0-.25-.11l-.09.44H12.2L11.92,45h-.46l.12.47-.09.05-.39-.41a1.82,1.82,0,0,0-.27.29l.27.52,0,.12-.42-.16a2.73,2.73,0,0,0-.08.49l.39.41V47l-.36.07c0,.16.12.38.2.61l.39.13.08.18-.2.33a5.69,5.69,0,0,0,.35.57l.35-.07.15.18v.49c.08.09.16.14.24.23s.15.13.23.18l.2-.34.15.09.2.56.46.14v-.49s.08,0,.16,0l.35.46a1.06,1.06,0,0,0,.35-.15l-.19-.56.08-.09.42.29a1,1,0,0,0,.16-.4v0l-.35-.47v-.13l.39,0a2.78,2.78,0,0,0-.08-.62l-.42-.3,0-.11.27-.2a3.07,3.07,0,0,0-.31-.63l-.39,0-.08-.1.08-.45c-.15-.17-.27-.33-.46-.54l-.28.2,0,0,0,0-.12-.56a2,2,0,0,0-.25-.18" style="fill: #fff"/>
            <path d="M20.47,46.32,19.85,46a.58.58,0,0,1-.78.06,1.1,1.1,0,0,1-.25-.19,2.2,2.2,0,0,1-.57-.79l-.58-.34.06.23L18,45l.08.14-.16.22c.08.14.16.27.23.41l.24-.09.12.11v.36l.16.13.16.14.11-.25.12.07.16.4a.59.59,0,0,0,.3.09v-.36l.13,0,.23.31.23-.13L20,46.19c.08.05.12,0,.12,0l.31.23,0-.12" style="fill: #fff"/>
          </g>
        </g>
      </g>
    </g>
    <g id="Lock_Body-2" data-name="Lock Body">
      <polygon points="99.32 74.17 95.25 71.82 85.08 77.69 85.08 87.62 89.15 89.97 99.33 84.1 99.32 74.17" style="fill: #fbb03b;stroke: #fff;stroke-miterlimit: 10;stroke-width: 0.66px"/>
      <polyline points="89.15 89.97 89.15 80.05 99.32 74.17" style="fill: none;stroke: #fff;stroke-miterlimit: 10;stroke-width: 0.33px"/>
      <line x1="85.08" y1="77.69" x2="89.15" y2="80.05" style="fill: #fff;stroke: #fff;stroke-miterlimit: 10;stroke-width: 0.33px"/>
    </g>
    <g id="Lock_U-2" data-name="Lock U">
      <path d="M102.26,70.63v-6a3.12,3.12,0,0,0-1.4-2.84A2.73,2.73,0,0,0,99,61.51a4.85,4.85,0,0,1,.83,2l0,0a1.25,1.25,0,0,1,.38,1.07v6c0,.33.45.59,1,.59s1-.26,1-.58Z" style="fill: gray;stroke: #fff;stroke-miterlimit: 10;stroke-width: 0.66px"/>
      <path d="M98.09,61.79a4,4,0,0,0-.41.21,5,5,0,0,0-1,.71,6.39,6.39,0,0,0-.73.74,7.6,7.6,0,0,0-1.85,4.68v6.06c0,.33.44.59,1,.59s1-.26,1-.59V68.13A5.52,5.52,0,0,1,97.36,65a5.93,5.93,0,0,1,.8-.85,3.78,3.78,0,0,1,.54-.38l0,0a1,1,0,0,0,.07-.37A2.42,2.42,0,0,0,98.09,61.79Z" style="fill: gray;stroke: #fff;stroke-miterlimit: 10;stroke-width: 0.66px"/>
    </g>
    <path id="Loop-2" data-name="Loop" d="M99.8,63.53a4.85,4.85,0,0,0-.83-2,4.17,4.17,0,0,0-1.26-1.22l-.19-.11-1-.58-.92-.53V64h0l.4-.51a6.39,6.39,0,0,1,.73-.74,1.91,1.91,0,0,1-.11-.6c0-.56.32-.85.76-.76a1.12,1.12,0,0,1,.34.13,1.79,1.79,0,0,1,.38.31,2.42,2.42,0,0,1,.71,1.58,1,1,0,0,1-.07.37.56.56,0,0,1-.57.4,5.93,5.93,0,0,0-.8.85l.34.19c1.17.67,2.13.13,2.13-1.22A3.22,3.22,0,0,0,99.8,63.53Z" style="fill: #ed1c24;stroke: #fff;stroke-miterlimit: 10;stroke-width: 0.33px"/>
  </g>
</svg>
