<svg height='100px' width='100px' style="fill: currentColor;" xmlns:dc="http://purl.org/dc/elements/1.1/" xmlns:cc="http://creativecommons.org/ns#" xmlns:rdf="http://www.w3.org/1999/02/22-rdf-syntax-ns#" xmlns:svg="http://www.w3.org/2000/svg" xmlns="http://www.w3.org/2000/svg" xmlns:sodipodi="http://sodipodi.sourceforge.net/DTD/sodipodi-0.dtd" xmlns:inkscape="http://www.inkscape.org/namespaces/inkscape" viewBox="0 0 24.000001 24.000001" version="1.1" x="0px" y="0px"><g transform="translate(0,-1028.3622)"><path d="M 9.5,4 A 0.50024815,0.50024815 0 0 0 9,4.5019531 V 6 H 5.5 A 0.49986008,0.49986008 0 0 0 5,6.5 V 8.5019531 A 0.49986008,0.49986008 0 0 0 5.5,9 H 6 V 20.5 A 0.50002318,0.50002318 0 0 0 6.5,21 h 11 A 0.50002318,0.50002318 0 0 0 18,20.5 V 9 h 0.5 A 0.49986008,0.49986008 0 0 0 19,8.5019531 V 6.5 A 0.49986008,0.49986008 0 0 0 18.5,6 H 15 V 4.5019531 A 0.50024815,0.50024815 0 0 0 14.5,4 Z M 10,5.0019531 h 4 V 6 H 10 Z M 6,7 H 18 V 8.0019531 H 17.550781 A 0.50002318,0.50002318 0 0 0 17.5,8 h -11 a 0.50002318,0.50002318 0 0 0 -0.050781,0.00195 H 6 Z M 7,9 H 17 V 20 H 7 Z m 2,2 v 7 h 1 v -7 z m 2.5,0 v 7 h 1 v -7 z m 2.5,0 v 7 h 1 v -7 z" transform="translate(0,1028.3622)"></path></g></svg>