<?xml version="1.0" encoding="UTF-8"?>
<svg width="100pt" height="100pt" version="1.1" viewBox="0 0 100 100" xmlns="http://www.w3.org/2000/svg">
 <path style="fill: currentColor;" d="m54.238 50 20.684-20.68c1.0977-1.1836 1.0664-3.0234-0.074219-4.168-1.1445-1.1406-2.9844-1.1719-4.168-0.074219l-20.68 20.684-20.68-20.691c-1.1836-1.1016-3.0234-1.0703-4.168 0.074219-1.1406 1.1406-1.1719 2.9844-0.074219 4.1641l20.684 20.691-20.684 20.68c-0.59375 0.55469-0.9375 1.3281-0.95312 2.1406-0.015625 0.81641 0.30469 1.6016 0.87891 2.1758 0.57422 0.57422 1.3594 0.89453 2.1758 0.87891 0.8125-0.015625 1.5859-0.35938 2.1406-0.95312l20.68-20.684 20.68 20.684c1.1836 1.0977 3.0234 1.0664 4.168-0.074219 1.1406-1.1445 1.1719-2.9844 0.074219-4.168z"/>
</svg>
